<svg width="36" height="32" viewBox="0 0 36 32" fill="none" xmlns="http://www.w3.org/2000/svg">
<line x1="17.75" y1="9" x2="17.75" y2="6" stroke="#171717" stroke-width="0.5"/>
<line x1="16" y1="18" x2="22" y2="18" stroke="#171717" stroke-width="0.5"/>
<circle cx="18.6499" cy="7" r="3" fill="#171717"/>
<circle cx="31.5" cy="5.5" r="1.5" fill="#171717"/>
<circle cx="21.4999" cy="18" r="1.5" fill="#171717"/>
<ellipse cx="23.9107" cy="24" rx="1.91068" ry="2" fill="#171717"/>
<line x1="19.2403" y1="8.93132" x2="23.2404" y2="22.9313" stroke="#171717" stroke-width="0.5"/>
<line x1="21.8079" y1="17.84" x2="31.8079" y2="5.83995" stroke="#171717" stroke-width="0.5"/>
<line x1="32.0354" y1="5.24749" x2="18.0354" y2="7.24749" stroke="#171717" stroke-width="0.5"/>
<ellipse cx="2.99998" cy="3" rx="2.99998" ry="3" transform="matrix(-1 0 0 1 21.6499 4)" fill="#171717"/>
<ellipse cx="1.49999" cy="1.5" rx="1.49999" ry="1.5" transform="matrix(-1 0 0 1 7 8)" fill="#171717"/>
<ellipse cx="1.49999" cy="1.5" rx="1.49999" ry="1.5" transform="matrix(-1 0 0 1 17 17)" fill="#171717"/>
<ellipse cx="1.91066" cy="2" rx="1.91066" ry="2" transform="matrix(-1 0 0 1 15.2998 24.0584)" fill="#171717"/>
<line y1="-0.25" x2="18.5" y2="-0.25" transform="matrix(-0.267718 0.963497 0.963496 0.267721 18.2999 9)" stroke="#171717" stroke-width="0.5"/>
<line x1="15.1368" y1="18.1895" x2="5.83697" y2="10.1895" stroke="#171717" stroke-width="0.5"/>
<line x1="5.96199" y1="8.75291" x2="18.962" y2="6.75291" stroke="#171717" stroke-width="0.5"/>
</svg>
