<svg width="177" height="24" viewBox="0 0 177 24" fill="none" xmlns="http://www.w3.org/2000/svg">
<path d="M0.758523 10V1.27273H4.2017C4.86364 1.27273 5.42756 1.39915 5.89347 1.65199C6.35938 1.90199 6.71449 2.25 6.95881 2.69602C7.20597 3.1392 7.32955 3.65057 7.32955 4.23011C7.32955 4.80966 7.20455 5.32102 6.95455 5.7642C6.70455 6.20739 6.34233 6.55256 5.8679 6.79972C5.39631 7.04687 4.82528 7.17045 4.15483 7.17045H1.96023V5.69176H3.85653C4.21165 5.69176 4.50426 5.63068 4.73438 5.50852C4.96733 5.38352 5.14063 5.21165 5.25426 4.9929C5.37074 4.77131 5.42898 4.51705 5.42898 4.23011C5.42898 3.94034 5.37074 3.6875 5.25426 3.47159C5.14063 3.25284 4.96733 3.08381 4.73438 2.96449C4.50142 2.84233 4.20597 2.78125 3.84801 2.78125H2.60369V10H0.758523ZM10.1847 10.1236C9.76705 10.1236 9.39489 10.0511 9.06818 9.90625C8.74148 9.75852 8.48295 9.54119 8.29261 9.25426C8.10511 8.96449 8.01136 8.60369 8.01136 8.17188C8.01136 7.80824 8.07813 7.50284 8.21165 7.25568C8.34517 7.00852 8.52699 6.80966 8.7571 6.65909C8.98722 6.50852 9.24858 6.39489 9.54119 6.31818C9.83665 6.24148 10.1463 6.1875 10.4702 6.15625C10.8509 6.11648 11.1577 6.07955 11.3906 6.04545C11.6236 6.00852 11.7926 5.95455 11.8977 5.88352C12.0028 5.8125 12.0554 5.70739 12.0554 5.56818V5.54261C12.0554 5.27273 11.9702 5.06392 11.7997 4.91619C11.6321 4.76847 11.3935 4.6946 11.0838 4.6946C10.7571 4.6946 10.4972 4.76705 10.304 4.91193C10.1108 5.05398 9.98295 5.23295 9.92045 5.44886L8.24148 5.3125C8.3267 4.91477 8.49432 4.57102 8.74432 4.28125C8.99432 3.98864 9.31676 3.7642 9.71165 3.60795C10.1094 3.44886 10.5696 3.36932 11.0923 3.36932C11.456 3.36932 11.804 3.41193 12.1364 3.49716C12.4716 3.58239 12.7685 3.71449 13.027 3.89347C13.2884 4.07244 13.4943 4.30256 13.6449 4.58381C13.7955 4.86222 13.8707 5.19602 13.8707 5.58523V10H12.1491V9.09233H12.098C11.9929 9.29688 11.8523 9.47727 11.6761 9.63352C11.5 9.78693 11.2884 9.90767 11.0412 9.99574C10.794 10.081 10.5085 10.1236 10.1847 10.1236ZM10.7045 8.87074C10.9716 8.87074 11.2074 8.81818 11.4119 8.71307C11.6165 8.60511 11.777 8.46023 11.8935 8.27841C12.0099 8.09659 12.0682 7.89062 12.0682 7.66051V6.96591C12.0114 7.00284 11.9332 7.03693 11.8338 7.06818C11.7372 7.09659 11.6278 7.12358 11.5057 7.14915C11.3835 7.17187 11.2614 7.19318 11.1392 7.21307C11.017 7.23011 10.9062 7.24574 10.8068 7.25994C10.5938 7.29119 10.4077 7.34091 10.2486 7.40909C10.0895 7.47727 9.96591 7.5696 9.87784 7.68608C9.78977 7.79972 9.74574 7.94176 9.74574 8.11222C9.74574 8.35938 9.83523 8.5483 10.0142 8.67898C10.196 8.80682 10.4261 8.87074 10.7045 8.87074ZM17.0945 6.21591V10H15.2791V3.45455H17.0092V4.60938H17.0859C17.2308 4.22869 17.4737 3.92756 17.8146 3.70597C18.1555 3.48153 18.5689 3.36932 19.0547 3.36932C19.5092 3.36932 19.9055 3.46875 20.2436 3.66761C20.5817 3.86648 20.8445 4.15057 21.032 4.51989C21.2195 4.88636 21.3132 5.32386 21.3132 5.83239V10H19.4979V6.15625C19.5007 5.75568 19.3984 5.44318 19.1911 5.21875C18.9837 4.99148 18.6982 4.87784 18.3345 4.87784C18.0902 4.87784 17.8743 4.9304 17.6868 5.03551C17.5021 5.14062 17.3572 5.29403 17.2521 5.49574C17.1499 5.6946 17.0973 5.93466 17.0945 6.21591ZM25.7269 10.1278C25.0536 10.1278 24.4741 9.99148 23.9883 9.71875C23.5053 9.44318 23.1332 9.05398 22.8718 8.55114C22.6104 8.04545 22.4798 7.44744 22.4798 6.7571C22.4798 6.08381 22.6104 5.4929 22.8718 4.98438C23.1332 4.47585 23.5011 4.07955 23.9755 3.79545C24.4528 3.51136 25.0124 3.36932 25.6545 3.36932C26.0863 3.36932 26.4883 3.43892 26.8604 3.57812C27.2354 3.71449 27.5621 3.92045 27.8406 4.19602C28.1218 4.47159 28.3406 4.81818 28.4968 5.2358C28.6531 5.65057 28.7312 6.13636 28.7312 6.69318V7.19176H23.2042V6.06676H27.0224C27.0224 5.8054 26.9656 5.57386 26.8519 5.37216C26.7383 5.17045 26.5806 5.01278 26.3789 4.89915C26.18 4.78267 25.9485 4.72443 25.6843 4.72443C25.4087 4.72443 25.1644 4.78835 24.9513 4.91619C24.7411 5.04119 24.5763 5.21023 24.457 5.4233C24.3377 5.63352 24.2766 5.8679 24.2738 6.12642V7.19602C24.2738 7.51989 24.3335 7.79972 24.4528 8.03551C24.5749 8.27131 24.7468 8.45312 24.9684 8.58097C25.19 8.70881 25.4528 8.77273 25.7567 8.77273C25.9585 8.77273 26.1431 8.74432 26.3107 8.6875C26.4783 8.63068 26.6218 8.54545 26.7411 8.43182C26.8604 8.31818 26.9513 8.17898 27.0138 8.0142L28.6928 8.125C28.6076 8.52841 28.4329 8.88068 28.1687 9.18182C27.9073 9.48011 27.5692 9.71307 27.1545 9.88068C26.7425 10.0455 26.2667 10.1278 25.7269 10.1278ZM31.7312 1.27273V10H29.9158V1.27273H31.7312ZM35.9968 10V1.27273H39.44C40.1019 1.27273 40.6658 1.39915 41.1317 1.65199C41.5977 1.90199 41.9528 2.25 42.1971 2.69602C42.4442 3.1392 42.5678 3.65057 42.5678 4.23011C42.5678 4.80966 42.4428 5.32102 42.1928 5.7642C41.9428 6.20739 41.5806 6.55256 41.1062 6.79972C40.6346 7.04687 40.0636 7.17045 39.3931 7.17045H37.1985V5.69176H39.0948C39.4499 5.69176 39.7425 5.63068 39.9727 5.50852C40.2056 5.38352 40.3789 5.21165 40.4925 4.9929C40.609 4.77131 40.6673 4.51705 40.6673 4.23011C40.6673 3.94034 40.609 3.6875 40.4925 3.47159C40.3789 3.25284 40.2056 3.08381 39.9727 2.96449C39.7397 2.84233 39.4442 2.78125 39.0863 2.78125H37.842V10H35.9968ZM43.7322 10V3.45455H45.4922V4.59659H45.5604C45.6797 4.19034 45.88 3.88352 46.1612 3.67614C46.4425 3.46591 46.7663 3.3608 47.1328 3.3608C47.2237 3.3608 47.3217 3.36648 47.4268 3.37784C47.532 3.3892 47.6243 3.40483 47.7038 3.42472V5.03551C47.6186 5.00994 47.5007 4.98722 47.3501 4.96733C47.1996 4.94744 47.0618 4.9375 46.9368 4.9375C46.6697 4.9375 46.4311 4.99574 46.2209 5.11222C46.0135 5.22585 45.8487 5.38494 45.7266 5.58949C45.6072 5.79403 45.5476 6.02983 45.5476 6.29688V10H43.7322ZM51.2951 10.1278C50.6332 10.1278 50.0607 9.98722 49.5778 9.70597C49.0977 9.42187 48.7269 9.02699 48.4656 8.52131C48.2042 8.01278 48.0735 7.4233 48.0735 6.75284C48.0735 6.0767 48.2042 5.4858 48.4656 4.98011C48.7269 4.47159 49.0977 4.0767 49.5778 3.79545C50.0607 3.51136 50.6332 3.36932 51.2951 3.36932C51.957 3.36932 52.5281 3.51136 53.0082 3.79545C53.4911 4.0767 53.8633 4.47159 54.1246 4.98011C54.386 5.4858 54.5167 6.0767 54.5167 6.75284C54.5167 7.4233 54.386 8.01278 54.1246 8.52131C53.8633 9.02699 53.4911 9.42187 53.0082 9.70597C52.5281 9.98722 51.957 10.1278 51.2951 10.1278ZM51.3036 8.72159C51.6048 8.72159 51.8562 8.63636 52.0579 8.46591C52.2596 8.29261 52.4116 8.05682 52.5138 7.75852C52.619 7.46023 52.6715 7.12074 52.6715 6.74006C52.6715 6.35938 52.619 6.01989 52.5138 5.72159C52.4116 5.4233 52.2596 5.1875 52.0579 5.0142C51.8562 4.84091 51.6048 4.75426 51.3036 4.75426C50.9996 4.75426 50.744 4.84091 50.5366 5.0142C50.332 5.1875 50.1772 5.4233 50.0721 5.72159C49.9698 6.01989 49.9187 6.35938 49.9187 6.74006C49.9187 7.12074 49.9698 7.46023 50.0721 7.75852C50.1772 8.05682 50.332 8.29261 50.5366 8.46591C50.744 8.63636 50.9996 8.72159 51.3036 8.72159Z" fill="white"/>
<path d="M0.704545 22V16.1818H1.375V18.3295H1.43182C1.48106 18.2538 1.54924 18.1572 1.63636 18.0398C1.72538 17.9205 1.85227 17.8144 2.01705 17.7216C2.18371 17.6269 2.40909 17.5795 2.69318 17.5795C3.06061 17.5795 3.38447 17.6714 3.66477 17.8551C3.94508 18.0388 4.16383 18.2992 4.32102 18.6364C4.47822 18.9735 4.55682 19.3712 4.55682 19.8295C4.55682 20.2917 4.47822 20.6922 4.32102 21.0312C4.16383 21.3684 3.94602 21.6297 3.66761 21.8153C3.3892 21.9991 3.06818 22.0909 2.70455 22.0909C2.42424 22.0909 2.19981 22.0445 2.03125 21.9517C1.86269 21.857 1.73295 21.75 1.64205 21.6307C1.55114 21.5095 1.48106 21.4091 1.43182 21.3295H1.35227V22H0.704545ZM1.36364 19.8182C1.36364 20.1477 1.41193 20.4384 1.50852 20.6903C1.60511 20.9403 1.74621 21.1364 1.93182 21.2784C2.11742 21.4186 2.3447 21.4886 2.61364 21.4886C2.89394 21.4886 3.12784 21.4148 3.31534 21.267C3.50473 21.1174 3.64678 20.9167 3.74148 20.6648C3.83807 20.411 3.88636 20.1288 3.88636 19.8182C3.88636 19.5114 3.83902 19.2348 3.74432 18.9886C3.65152 18.7405 3.51042 18.5445 3.32102 18.4006C3.13352 18.2547 2.89773 18.1818 2.61364 18.1818C2.34091 18.1818 2.11174 18.2509 1.92614 18.3892C1.74053 18.5256 1.60038 18.7169 1.50568 18.9631C1.41098 19.2074 1.36364 19.4924 1.36364 19.8182ZM5.85795 23.6364C5.74432 23.6364 5.64299 23.6269 5.55398 23.608C5.46496 23.5909 5.40341 23.5739 5.36932 23.5568L5.53977 22.9659C5.70265 23.0076 5.84659 23.0227 5.97159 23.0114C6.09659 23 6.20739 22.9441 6.30398 22.8438C6.40246 22.7453 6.49242 22.5852 6.57386 22.3636L6.69886 22.0227L5.08523 17.6364H5.8125L7.01705 21.1136H7.0625L8.26705 17.6364H8.99432L7.14205 22.6364C7.05871 22.8617 6.95549 23.0483 6.83239 23.196C6.70928 23.3456 6.56629 23.4564 6.40341 23.5284C6.24242 23.6004 6.06061 23.6364 5.85795 23.6364ZM16.0384 16.1818H16.7429V20.0341C16.7429 20.4318 16.6491 20.7869 16.4616 21.0994C16.276 21.41 16.0137 21.6553 15.6747 21.8352C15.3357 22.0133 14.938 22.1023 14.4815 22.1023C14.0251 22.1023 13.6274 22.0133 13.2884 21.8352C12.9493 21.6553 12.6861 21.41 12.4986 21.0994C12.313 20.7869 12.2202 20.4318 12.2202 20.0341V16.1818H12.9247V19.9773C12.9247 20.2614 12.9872 20.5142 13.1122 20.7358C13.2372 20.9555 13.4152 21.1288 13.6463 21.2557C13.8793 21.3807 14.1577 21.4432 14.4815 21.4432C14.8054 21.4432 15.0838 21.3807 15.3168 21.2557C15.5497 21.1288 15.7277 20.9555 15.8509 20.7358C15.9759 20.5142 16.0384 20.2614 16.0384 19.9773V16.1818ZM21.1499 18.6136L20.5476 18.7841C20.5097 18.6837 20.4538 18.5862 20.38 18.4915C20.308 18.3949 20.2095 18.3153 20.0845 18.2528C19.9595 18.1903 19.7995 18.1591 19.6044 18.1591C19.3374 18.1591 19.1148 18.2206 18.9368 18.3438C18.7607 18.465 18.6726 18.6193 18.6726 18.8068C18.6726 18.9735 18.7332 19.1051 18.8544 19.2017C18.9756 19.2983 19.165 19.3788 19.4226 19.4432L20.0703 19.6023C20.4605 19.697 20.7512 19.8419 20.9425 20.0369C21.1338 20.2301 21.2294 20.4792 21.2294 20.7841C21.2294 21.0341 21.1574 21.2576 21.0135 21.4545C20.8714 21.6515 20.6726 21.8068 20.4169 21.9205C20.1612 22.0341 19.8639 22.0909 19.5249 22.0909C19.0798 22.0909 18.7114 21.9943 18.4197 21.8011C18.1281 21.608 17.9434 21.3258 17.8658 20.9545L18.5021 20.7955C18.5627 21.0303 18.6773 21.2064 18.8459 21.3239C19.0163 21.4413 19.2389 21.5 19.5135 21.5C19.826 21.5 20.0741 21.4337 20.2578 21.3011C20.4434 21.1667 20.5362 21.0057 20.5362 20.8182C20.5362 20.6667 20.4832 20.5398 20.3771 20.4375C20.2711 20.3333 20.1082 20.2557 19.8885 20.2045L19.1612 20.0341C18.7616 19.9394 18.468 19.7926 18.2805 19.5938C18.0949 19.393 18.0021 19.142 18.0021 18.8409C18.0021 18.5947 18.0713 18.3769 18.2095 18.1875C18.3497 17.9981 18.54 17.8494 18.7805 17.7415C19.023 17.6335 19.2976 17.5795 19.6044 17.5795C20.0362 17.5795 20.3752 17.6742 20.6214 17.8636C20.8696 18.053 21.0457 18.303 21.1499 18.6136ZM24.0682 22.0909C23.6477 22.0909 23.285 21.9981 22.9801 21.8125C22.6771 21.625 22.4432 21.3636 22.2784 21.0284C22.1155 20.6913 22.0341 20.2992 22.0341 19.8523C22.0341 19.4053 22.1155 19.0114 22.2784 18.6705C22.4432 18.3277 22.6723 18.0606 22.9659 17.8693C23.2614 17.6761 23.6061 17.5795 24 17.5795C24.2273 17.5795 24.4517 17.6174 24.6733 17.6932C24.8949 17.7689 25.0966 17.892 25.2784 18.0625C25.4602 18.2311 25.6051 18.4545 25.7131 18.733C25.821 19.0114 25.875 19.3542 25.875 19.7614V20.0455H22.5114V19.4659H25.1932C25.1932 19.2197 25.1439 19 25.0455 18.8068C24.9489 18.6136 24.8106 18.4612 24.6307 18.3494C24.4527 18.2377 24.2424 18.1818 24 18.1818C23.733 18.1818 23.5019 18.2481 23.3068 18.3807C23.1136 18.5114 22.965 18.6818 22.8608 18.892C22.7566 19.1023 22.7045 19.3277 22.7045 19.5682V19.9545C22.7045 20.2841 22.7614 20.5634 22.875 20.7926C22.9905 21.0199 23.1506 21.1932 23.3551 21.3125C23.5597 21.4299 23.7973 21.4886 24.0682 21.4886C24.2443 21.4886 24.4034 21.464 24.5455 21.4148C24.6894 21.3636 24.8134 21.2879 24.9176 21.1875C25.0218 21.0852 25.1023 20.9583 25.1591 20.8068L25.8068 20.9886C25.7386 21.2083 25.6241 21.4015 25.4631 21.5682C25.3021 21.733 25.1032 21.8617 24.8665 21.9545C24.6297 22.0455 24.3636 22.0909 24.0682 22.0909ZM26.8949 22V17.6364H27.5426V18.2955H27.5881C27.6676 18.0795 27.8116 17.9044 28.0199 17.7699C28.2282 17.6354 28.4631 17.5682 28.7244 17.5682C28.7737 17.5682 28.8352 17.5691 28.9091 17.571C28.983 17.5729 29.0388 17.5758 29.0767 17.5795V18.2614C29.054 18.2557 29.0019 18.2472 28.9205 18.2358C28.8409 18.2225 28.7566 18.2159 28.6676 18.2159C28.4555 18.2159 28.2661 18.2604 28.0994 18.3494C27.9347 18.4366 27.804 18.5578 27.7074 18.7131C27.6127 18.8665 27.5653 19.0417 27.5653 19.2386V22H26.8949ZM32.2124 22V16.1818H34.1783C34.6328 16.1818 35.0059 16.2595 35.2976 16.4148C35.5893 16.5682 35.8052 16.7794 35.9453 17.0483C36.0855 17.3172 36.1555 17.6231 36.1555 17.9659C36.1555 18.3087 36.0855 18.6127 35.9453 18.8778C35.8052 19.143 35.5902 19.3513 35.3004 19.5028C35.0107 19.6525 34.6404 19.7273 34.1896 19.7273H32.5987V19.0909H34.1669C34.4775 19.0909 34.7275 19.0455 34.9169 18.9545C35.1082 18.8636 35.2464 18.7348 35.3317 18.5682C35.4188 18.3996 35.4624 18.1989 35.4624 17.9659C35.4624 17.733 35.4188 17.5294 35.3317 17.3551C35.2446 17.1809 35.1054 17.0464 34.9141 16.9517C34.7228 16.8551 34.4699 16.8068 34.1555 16.8068H32.9169V22H32.2124ZM34.951 19.3864L36.3828 22H35.5646L34.1555 19.3864H34.951ZM39.0213 22.0909C38.6009 22.0909 38.2382 21.9981 37.9332 21.8125C37.6302 21.625 37.3963 21.3636 37.2315 21.0284C37.0687 20.6913 36.9872 20.2992 36.9872 19.8523C36.9872 19.4053 37.0687 19.0114 37.2315 18.6705C37.3963 18.3277 37.6255 18.0606 37.919 17.8693C38.2145 17.6761 38.5592 17.5795 38.9531 17.5795C39.1804 17.5795 39.4048 17.6174 39.6264 17.6932C39.848 17.7689 40.0497 17.892 40.2315 18.0625C40.4134 18.2311 40.5582 18.4545 40.6662 18.733C40.7741 19.0114 40.8281 19.3542 40.8281 19.7614V20.0455H37.4645V19.4659H40.1463C40.1463 19.2197 40.0971 19 39.9986 18.8068C39.902 18.6136 39.7637 18.4612 39.5838 18.3494C39.4058 18.2377 39.1955 18.1818 38.9531 18.1818C38.6861 18.1818 38.455 18.2481 38.2599 18.3807C38.0668 18.5114 37.9181 18.6818 37.8139 18.892C37.7098 19.1023 37.6577 19.3277 37.6577 19.5682V19.9545C37.6577 20.2841 37.7145 20.5634 37.8281 20.7926C37.9437 21.0199 38.1037 21.1932 38.3082 21.3125C38.5128 21.4299 38.7505 21.4886 39.0213 21.4886C39.1974 21.4886 39.3565 21.464 39.4986 21.4148C39.6425 21.3636 39.7666 21.2879 39.8707 21.1875C39.9749 21.0852 40.0554 20.9583 40.1122 20.8068L40.7599 20.9886C40.6918 21.2083 40.5772 21.4015 40.4162 21.5682C40.2552 21.733 40.0563 21.8617 39.8196 21.9545C39.5829 22.0455 39.3168 22.0909 39.0213 22.0909ZM44.9389 18.6136L44.3366 18.7841C44.2988 18.6837 44.2429 18.5862 44.169 18.4915C44.0971 18.3949 43.9986 18.3153 43.8736 18.2528C43.7486 18.1903 43.5885 18.1591 43.3935 18.1591C43.1264 18.1591 42.9039 18.2206 42.7259 18.3438C42.5497 18.465 42.4616 18.6193 42.4616 18.8068C42.4616 18.9735 42.5223 19.1051 42.6435 19.2017C42.7647 19.2983 42.9541 19.3788 43.2116 19.4432L43.8594 19.6023C44.2495 19.697 44.5402 19.8419 44.7315 20.0369C44.9228 20.2301 45.0185 20.4792 45.0185 20.7841C45.0185 21.0341 44.9465 21.2576 44.8026 21.4545C44.6605 21.6515 44.4616 21.8068 44.206 21.9205C43.9503 22.0341 43.6529 22.0909 43.3139 22.0909C42.8688 22.0909 42.5005 21.9943 42.2088 21.8011C41.9171 21.608 41.7325 21.3258 41.6548 20.9545L42.2912 20.7955C42.3518 21.0303 42.4664 21.2064 42.6349 21.3239C42.8054 21.4413 43.0279 21.5 43.3026 21.5C43.6151 21.5 43.8632 21.4337 44.0469 21.3011C44.2325 21.1667 44.3253 21.0057 44.3253 20.8182C44.3253 20.6667 44.2723 20.5398 44.1662 20.4375C44.0601 20.3333 43.8973 20.2557 43.6776 20.2045L42.9503 20.0341C42.5507 19.9394 42.2571 19.7926 42.0696 19.5938C41.884 19.393 41.7912 19.142 41.7912 18.8409C41.7912 18.5947 41.8603 18.3769 41.9986 18.1875C42.1387 17.9981 42.3291 17.8494 42.5696 17.7415C42.812 17.6335 43.0866 17.5795 43.3935 17.5795C43.8253 17.5795 44.1643 17.6742 44.4105 17.8636C44.6586 18.053 44.8348 18.303 44.9389 18.6136ZM47.8572 22.0909C47.4368 22.0909 47.0741 21.9981 46.7692 21.8125C46.4661 21.625 46.2322 21.3636 46.0675 21.0284C45.9046 20.6913 45.8232 20.2992 45.8232 19.8523C45.8232 19.4053 45.9046 19.0114 46.0675 18.6705C46.2322 18.3277 46.4614 18.0606 46.755 17.8693C47.0504 17.6761 47.3951 17.5795 47.7891 17.5795C48.0163 17.5795 48.2408 17.6174 48.4624 17.6932C48.6839 17.7689 48.8857 17.892 49.0675 18.0625C49.2493 18.2311 49.3942 18.4545 49.5021 18.733C49.6101 19.0114 49.6641 19.3542 49.6641 19.7614V20.0455H46.3004V19.4659H48.9822C48.9822 19.2197 48.933 19 48.8345 18.8068C48.7379 18.6136 48.5997 18.4612 48.4197 18.3494C48.2417 18.2377 48.0315 18.1818 47.7891 18.1818C47.522 18.1818 47.291 18.2481 47.0959 18.3807C46.9027 18.5114 46.754 18.6818 46.6499 18.892C46.5457 19.1023 46.4936 19.3277 46.4936 19.5682V19.9545C46.4936 20.2841 46.5504 20.5634 46.6641 20.7926C46.7796 21.0199 46.9396 21.1932 47.1442 21.3125C47.3487 21.4299 47.5864 21.4886 47.8572 21.4886C48.0334 21.4886 48.1925 21.464 48.3345 21.4148C48.4785 21.3636 48.6025 21.2879 48.7067 21.1875C48.8108 21.0852 48.8913 20.9583 48.9482 20.8068L49.5959 20.9886C49.5277 21.2083 49.4131 21.4015 49.2521 21.5682C49.0911 21.733 48.8923 21.8617 48.6555 21.9545C48.4188 22.0455 48.1527 22.0909 47.8572 22.0909ZM51.968 22.1023C51.6915 22.1023 51.4406 22.0502 51.2152 21.946C50.9898 21.84 50.8108 21.6875 50.6783 21.4886C50.5457 21.2879 50.4794 21.0455 50.4794 20.7614C50.4794 20.5114 50.5286 20.3087 50.6271 20.1534C50.7256 19.9962 50.8572 19.8731 51.022 19.7841C51.1868 19.6951 51.3686 19.6288 51.5675 19.5852C51.7682 19.5398 51.9699 19.5038 52.1726 19.4773C52.4377 19.4432 52.6527 19.4176 52.8175 19.4006C52.9841 19.3816 53.1054 19.3504 53.1811 19.3068C53.2588 19.2633 53.2976 19.1875 53.2976 19.0795V19.0568C53.2976 18.7765 53.2209 18.5587 53.0675 18.4034C52.916 18.2481 52.6858 18.1705 52.3771 18.1705C52.0571 18.1705 51.8061 18.2405 51.6243 18.3807C51.4425 18.5208 51.3146 18.6705 51.2408 18.8295L50.6044 18.6023C50.718 18.3371 50.8696 18.1307 51.0589 17.983C51.2502 17.8333 51.4586 17.7292 51.6839 17.6705C51.9112 17.6098 52.1347 17.5795 52.3544 17.5795C52.4946 17.5795 52.6555 17.5966 52.8374 17.6307C53.0211 17.6629 53.1982 17.7301 53.3686 17.8324C53.541 17.9347 53.6839 18.089 53.7976 18.2955C53.9112 18.5019 53.968 18.7784 53.968 19.125V22H53.2976V21.4091H53.2635C53.218 21.5038 53.1423 21.6051 53.0362 21.7131C52.9302 21.821 52.7891 21.9129 52.6129 21.9886C52.4368 22.0644 52.2218 22.1023 51.968 22.1023ZM52.0703 21.5C52.3355 21.5 52.5589 21.4479 52.7408 21.3438C52.9245 21.2396 53.0627 21.1051 53.1555 20.9403C53.2502 20.7756 53.2976 20.6023 53.2976 20.4205V19.8068C53.2692 19.8409 53.2067 19.8722 53.1101 19.9006C53.0154 19.9271 52.9055 19.9508 52.7805 19.9716C52.6574 19.9905 52.5372 20.0076 52.4197 20.0227C52.3042 20.036 52.2105 20.0473 52.1385 20.0568C51.9643 20.0795 51.8014 20.1165 51.6499 20.1676C51.5002 20.2169 51.379 20.2917 51.2862 20.392C51.1953 20.4905 51.1499 20.625 51.1499 20.7955C51.1499 21.0284 51.236 21.2045 51.4084 21.3239C51.5826 21.4413 51.8033 21.5 52.0703 21.5ZM55.1918 22V17.6364H55.8395V18.2955H55.8849C55.9645 18.0795 56.1084 17.9044 56.3168 17.7699C56.5251 17.6354 56.7599 17.5682 57.0213 17.5682C57.0705 17.5682 57.1321 17.5691 57.206 17.571C57.2798 17.5729 57.3357 17.5758 57.3736 17.5795V18.2614C57.3509 18.2557 57.2988 18.2472 57.2173 18.2358C57.1378 18.2225 57.0535 18.2159 56.9645 18.2159C56.7524 18.2159 56.563 18.2604 56.3963 18.3494C56.2315 18.4366 56.1009 18.5578 56.0043 18.7131C55.9096 18.8665 55.8622 19.0417 55.8622 19.2386V22H55.1918ZM59.8082 22.0909C59.3991 22.0909 59.0469 21.9943 58.7514 21.8011C58.456 21.608 58.2287 21.3419 58.0696 21.0028C57.9105 20.6638 57.831 20.2765 57.831 19.8409C57.831 19.3977 57.9124 19.0066 58.0753 18.6676C58.2401 18.3267 58.4692 18.0606 58.7628 17.8693C59.0582 17.6761 59.4029 17.5795 59.7969 17.5795C60.1037 17.5795 60.3802 17.6364 60.6264 17.75C60.8726 17.8636 61.0743 18.0227 61.2315 18.2273C61.3887 18.4318 61.4863 18.6705 61.5241 18.9432H60.8537C60.8026 18.7443 60.6889 18.5682 60.5128 18.4148C60.3385 18.2595 60.1037 18.1818 59.8082 18.1818C59.5469 18.1818 59.3177 18.25 59.1207 18.3864C58.9257 18.5208 58.7732 18.7112 58.6634 18.9574C58.5554 19.2017 58.5014 19.4886 58.5014 19.8182C58.5014 20.1553 58.5545 20.4489 58.6605 20.6989C58.7685 20.9489 58.92 21.143 59.1151 21.2812C59.312 21.4195 59.5431 21.4886 59.8082 21.4886C59.9825 21.4886 60.1406 21.4583 60.2827 21.3977C60.4247 21.3371 60.545 21.25 60.6435 21.1364C60.742 21.0227 60.812 20.8864 60.8537 20.7273H61.5241C61.4863 20.9848 61.3925 21.2169 61.2429 21.4233C61.0952 21.6278 60.8991 21.7907 60.6548 21.9119C60.4124 22.0312 60.1302 22.0909 59.8082 22.0909ZM63.1747 19.375V22H62.5043V16.1818H63.1747V18.3182H63.2315C63.3338 18.0928 63.4872 17.9138 63.6918 17.7812C63.8982 17.6468 64.1728 17.5795 64.5156 17.5795C64.813 17.5795 65.0734 17.6392 65.2969 17.7585C65.5204 17.8759 65.6937 18.0568 65.8168 18.3011C65.9418 18.5436 66.0043 18.8523 66.0043 19.2273V22H65.3338V19.2727C65.3338 18.9261 65.2438 18.6581 65.0639 18.4688C64.8859 18.2775 64.6387 18.1818 64.3224 18.1818C64.1027 18.1818 63.9058 18.2282 63.7315 18.321C63.5592 18.4138 63.4228 18.5492 63.3224 18.7273C63.224 18.9053 63.1747 19.1212 63.1747 19.375ZM70.2763 16.1818V22H69.5717V16.1818H70.2763ZM72.2685 19.375V22H71.598V17.6364H72.2457V18.3182H72.3026C72.4048 18.0966 72.5601 17.9186 72.7685 17.7841C72.9768 17.6477 73.2457 17.5795 73.5753 17.5795C73.8707 17.5795 74.1293 17.6402 74.3509 17.7614C74.5724 17.8807 74.7448 18.0625 74.8679 18.3068C74.991 18.5492 75.0526 18.8561 75.0526 19.2273V22H74.3821V19.2727C74.3821 18.9299 74.2931 18.6629 74.1151 18.4716C73.937 18.2784 73.6927 18.1818 73.3821 18.1818C73.1681 18.1818 72.9768 18.2282 72.8082 18.321C72.6416 18.4138 72.5099 18.5492 72.4134 18.7273C72.3168 18.9053 72.2685 19.1212 72.2685 19.375ZM78.1754 17.6364V18.2045H75.9141V17.6364H78.1754ZM76.5732 16.5909H77.2436V20.75C77.2436 20.9394 77.2711 21.0814 77.326 21.1761C77.3828 21.2689 77.4548 21.3314 77.5419 21.3636C77.6309 21.3939 77.7247 21.4091 77.8232 21.4091C77.897 21.4091 77.9576 21.4053 78.005 21.3977C78.0523 21.3883 78.0902 21.3807 78.1186 21.375L78.255 21.9773C78.2095 21.9943 78.1461 22.0114 78.0646 22.0284C77.9832 22.0473 77.88 22.0568 77.755 22.0568C77.5656 22.0568 77.38 22.0161 77.1982 21.9347C77.0182 21.8532 76.8686 21.7292 76.7493 21.5625C76.6319 21.3958 76.5732 21.1856 76.5732 20.9318V16.5909ZM80.9666 22.0909C80.5462 22.0909 80.1835 21.9981 79.8786 21.8125C79.5755 21.625 79.3416 21.3636 79.1768 21.0284C79.014 20.6913 78.9325 20.2992 78.9325 19.8523C78.9325 19.4053 79.014 19.0114 79.1768 18.6705C79.3416 18.3277 79.5708 18.0606 79.8643 17.8693C80.1598 17.6761 80.5045 17.5795 80.8984 17.5795C81.1257 17.5795 81.3501 17.6174 81.5717 17.6932C81.7933 17.7689 81.995 17.892 82.1768 18.0625C82.3587 18.2311 82.5036 18.4545 82.6115 18.733C82.7195 19.0114 82.7734 19.3542 82.7734 19.7614V20.0455H79.4098V19.4659H82.0916C82.0916 19.2197 82.0424 19 81.9439 18.8068C81.8473 18.6136 81.709 18.4612 81.5291 18.3494C81.3511 18.2377 81.1409 18.1818 80.8984 18.1818C80.6314 18.1818 80.4003 18.2481 80.2053 18.3807C80.0121 18.5114 79.8634 18.6818 79.7592 18.892C79.6551 19.1023 79.603 19.3277 79.603 19.5682V19.9545C79.603 20.2841 79.6598 20.5634 79.7734 20.7926C79.889 21.0199 80.049 21.1932 80.2536 21.3125C80.4581 21.4299 80.6958 21.4886 80.9666 21.4886C81.1428 21.4886 81.3018 21.464 81.4439 21.4148C81.5878 21.3636 81.7119 21.2879 81.8161 21.1875C81.9202 21.0852 82.0007 20.9583 82.0575 20.8068L82.7053 20.9886C82.6371 21.2083 82.5225 21.4015 82.3615 21.5682C82.2005 21.733 82.0017 21.8617 81.7649 21.9545C81.5282 22.0455 81.2621 22.0909 80.9666 22.0909ZM83.7933 22V17.6364H84.4411V18.2955H84.4865C84.5661 18.0795 84.71 17.9044 84.9183 17.7699C85.1267 17.6354 85.3615 17.5682 85.6229 17.5682C85.6721 17.5682 85.7337 17.5691 85.8075 17.571C85.8814 17.5729 85.9373 17.5758 85.9751 17.5795V18.2614C85.9524 18.2557 85.9003 18.2472 85.8189 18.2358C85.7393 18.2225 85.6551 18.2159 85.5661 18.2159C85.3539 18.2159 85.1645 18.2604 84.9979 18.3494C84.8331 18.4366 84.7024 18.5578 84.6058 18.7131C84.5111 18.8665 84.4638 19.0417 84.4638 19.2386V22H83.7933ZM87.4403 19.375V22H86.7699V17.6364H87.4176V18.3182H87.4744C87.5767 18.0966 87.732 17.9186 87.9403 17.7841C88.1487 17.6477 88.4176 17.5795 88.7472 17.5795C89.0426 17.5795 89.3011 17.6402 89.5227 17.7614C89.7443 17.8807 89.9167 18.0625 90.0398 18.3068C90.1629 18.5492 90.2244 18.8561 90.2244 19.2273V22H89.554V19.2727C89.554 18.9299 89.465 18.6629 89.2869 18.4716C89.1089 18.2784 88.8646 18.1818 88.554 18.1818C88.34 18.1818 88.1487 18.2282 87.9801 18.321C87.8134 18.4138 87.6818 18.5492 87.5852 18.7273C87.4886 18.9053 87.4403 19.1212 87.4403 19.375ZM92.7337 22.1023C92.4571 22.1023 92.2062 22.0502 91.9808 21.946C91.7554 21.84 91.5765 21.6875 91.4439 21.4886C91.3113 21.2879 91.245 21.0455 91.245 20.7614C91.245 20.5114 91.2943 20.3087 91.3928 20.1534C91.4912 19.9962 91.6229 19.8731 91.7876 19.7841C91.9524 19.6951 92.1342 19.6288 92.3331 19.5852C92.5339 19.5398 92.7356 19.5038 92.9382 19.4773C93.2034 19.4432 93.4183 19.4176 93.5831 19.4006C93.7498 19.3816 93.871 19.3504 93.9467 19.3068C94.0244 19.2633 94.0632 19.1875 94.0632 19.0795V19.0568C94.0632 18.7765 93.9865 18.5587 93.8331 18.4034C93.6816 18.2481 93.4515 18.1705 93.1428 18.1705C92.8227 18.1705 92.5717 18.2405 92.3899 18.3807C92.2081 18.5208 92.0803 18.6705 92.0064 18.8295L91.37 18.6023C91.4837 18.3371 91.6352 18.1307 91.8246 17.983C92.0159 17.8333 92.2242 17.7292 92.4496 17.6705C92.6768 17.6098 92.9003 17.5795 93.12 17.5795C93.2602 17.5795 93.4212 17.5966 93.603 17.6307C93.7867 17.6629 93.9638 17.7301 94.1342 17.8324C94.3066 17.9347 94.4496 18.089 94.5632 18.2955C94.6768 18.5019 94.7337 18.7784 94.7337 19.125V22H94.0632V21.4091H94.0291C93.9837 21.5038 93.9079 21.6051 93.8018 21.7131C93.6958 21.821 93.5547 21.9129 93.3786 21.9886C93.2024 22.0644 92.9875 22.1023 92.7337 22.1023ZM92.8359 21.5C93.1011 21.5 93.3246 21.4479 93.5064 21.3438C93.6901 21.2396 93.8284 21.1051 93.9212 20.9403C94.0159 20.7756 94.0632 20.6023 94.0632 20.4205V19.8068C94.0348 19.8409 93.9723 19.8722 93.8757 19.9006C93.781 19.9271 93.6712 19.9508 93.5462 19.9716C93.4231 19.9905 93.3028 20.0076 93.1854 20.0227C93.0698 20.036 92.9761 20.0473 92.9041 20.0568C92.7299 20.0795 92.567 20.1165 92.4155 20.1676C92.2659 20.2169 92.1446 20.2917 92.0518 20.392C91.9609 20.4905 91.9155 20.625 91.9155 20.7955C91.9155 21.0284 92.0017 21.2045 92.174 21.3239C92.3482 21.4413 92.5689 21.5 92.8359 21.5ZM97.8551 17.6364V18.2045H95.5938V17.6364H97.8551ZM96.2528 16.5909H96.9233V20.75C96.9233 20.9394 96.9508 21.0814 97.0057 21.1761C97.0625 21.2689 97.1345 21.3314 97.2216 21.3636C97.3106 21.3939 97.4044 21.4091 97.5028 21.4091C97.5767 21.4091 97.6373 21.4053 97.6847 21.3977C97.732 21.3883 97.7699 21.3807 97.7983 21.375L97.9347 21.9773C97.8892 21.9943 97.8258 22.0114 97.7443 22.0284C97.6629 22.0473 97.5597 22.0568 97.4347 22.0568C97.2453 22.0568 97.0597 22.0161 96.8778 21.9347C96.6979 21.8532 96.5483 21.7292 96.429 21.5625C96.3116 21.3958 96.2528 21.1856 96.2528 20.9318V16.5909ZM98.8636 22V17.6364H99.5341V22H98.8636ZM99.2045 16.9091C99.0739 16.9091 98.9612 16.8646 98.8665 16.7756C98.7737 16.6866 98.7273 16.5795 98.7273 16.4545C98.7273 16.3295 98.7737 16.2225 98.8665 16.1335C98.9612 16.0445 99.0739 16 99.2045 16C99.3352 16 99.447 16.0445 99.5398 16.1335C99.6345 16.2225 99.6818 16.3295 99.6818 16.4545C99.6818 16.5795 99.6345 16.6866 99.5398 16.7756C99.447 16.8646 99.3352 16.9091 99.2045 16.9091ZM102.535 22.0909C102.141 22.0909 101.795 21.9972 101.498 21.8097C101.202 21.6222 100.971 21.3598 100.805 21.0227C100.64 20.6856 100.558 20.2917 100.558 19.8409C100.558 19.3864 100.64 18.9896 100.805 18.6506C100.971 18.3116 101.202 18.0483 101.498 17.8608C101.795 17.6733 102.141 17.5795 102.535 17.5795C102.929 17.5795 103.273 17.6733 103.569 17.8608C103.866 18.0483 104.097 18.3116 104.262 18.6506C104.429 18.9896 104.512 19.3864 104.512 19.8409C104.512 20.2917 104.429 20.6856 104.262 21.0227C104.097 21.3598 103.866 21.6222 103.569 21.8097C103.273 21.9972 102.929 22.0909 102.535 22.0909ZM102.535 21.4886C102.834 21.4886 103.08 21.4119 103.273 21.2585C103.467 21.1051 103.61 20.9034 103.702 20.6534C103.795 20.4034 103.842 20.1326 103.842 19.8409C103.842 19.5492 103.795 19.2775 103.702 19.0256C103.61 18.7737 103.467 18.5701 103.273 18.4148C103.08 18.2595 102.834 18.1818 102.535 18.1818C102.236 18.1818 101.989 18.2595 101.796 18.4148C101.603 18.5701 101.46 18.7737 101.367 19.0256C101.274 19.2775 101.228 19.5492 101.228 19.8409C101.228 20.1326 101.274 20.4034 101.367 20.6534C101.46 20.9034 101.603 21.1051 101.796 21.2585C101.989 21.4119 102.236 21.4886 102.535 21.4886ZM106.206 19.375V22H105.536V17.6364H106.183V18.3182H106.24C106.342 18.0966 106.498 17.9186 106.706 17.7841C106.914 17.6477 107.183 17.5795 107.513 17.5795C107.808 17.5795 108.067 17.6402 108.288 17.7614C108.51 17.8807 108.682 18.0625 108.805 18.3068C108.929 18.5492 108.99 18.8561 108.99 19.2273V22H108.32V19.2727C108.32 18.9299 108.231 18.6629 108.053 18.4716C107.875 18.2784 107.63 18.1818 107.32 18.1818C107.106 18.1818 106.914 18.2282 106.746 18.321C106.579 18.4138 106.447 18.5492 106.351 18.7273C106.254 18.9053 106.206 19.1212 106.206 19.375ZM111.499 22.1023C111.223 22.1023 110.972 22.0502 110.746 21.946C110.521 21.84 110.342 21.6875 110.21 21.4886C110.077 21.2879 110.011 21.0455 110.011 20.7614C110.011 20.5114 110.06 20.3087 110.158 20.1534C110.257 19.9962 110.388 19.8731 110.553 19.7841C110.718 19.6951 110.9 19.6288 111.099 19.5852C111.299 19.5398 111.501 19.5038 111.704 19.4773C111.969 19.4432 112.184 19.4176 112.349 19.4006C112.515 19.3816 112.637 19.3504 112.712 19.3068C112.79 19.2633 112.829 19.1875 112.829 19.0795V19.0568C112.829 18.7765 112.752 18.5587 112.599 18.4034C112.447 18.2481 112.217 18.1705 111.908 18.1705C111.588 18.1705 111.337 18.2405 111.156 18.3807C110.974 18.5208 110.846 18.6705 110.772 18.8295L110.136 18.6023C110.249 18.3371 110.401 18.1307 110.59 17.983C110.781 17.8333 110.99 17.7292 111.215 17.6705C111.442 17.6098 111.666 17.5795 111.886 17.5795C112.026 17.5795 112.187 17.5966 112.369 17.6307C112.552 17.6629 112.729 17.7301 112.9 17.8324C113.072 17.9347 113.215 18.089 113.329 18.2955C113.442 18.5019 113.499 18.7784 113.499 19.125V22H112.829V21.4091H112.795C112.749 21.5038 112.674 21.6051 112.567 21.7131C112.461 21.821 112.32 21.9129 112.144 21.9886C111.968 22.0644 111.753 22.1023 111.499 22.1023ZM111.602 21.5C111.867 21.5 112.09 21.4479 112.272 21.3438C112.456 21.2396 112.594 21.1051 112.687 20.9403C112.781 20.7756 112.829 20.6023 112.829 20.4205V19.8068C112.8 19.8409 112.738 19.8722 112.641 19.9006C112.547 19.9271 112.437 19.9508 112.312 19.9716C112.189 19.9905 112.068 20.0076 111.951 20.0227C111.835 20.036 111.742 20.0473 111.67 20.0568C111.496 20.0795 111.333 20.1165 111.181 20.1676C111.031 20.2169 110.91 20.2917 110.817 20.392C110.727 20.4905 110.681 20.625 110.681 20.7955C110.681 21.0284 110.767 21.2045 110.94 21.3239C111.114 21.4413 111.335 21.5 111.602 21.5ZM115.393 16.1818V22H114.723V16.1818H115.393Z" fill="#737373"/>
</svg>
