<svg width="175" height="44" viewBox="0 0 175 44" fill="none" xmlns="http://www.w3.org/2000/svg">
<path d="M1.13778 21V7.90909H6.30256C7.29545 7.90909 8.14134 8.09872 8.8402 8.47798C9.53906 8.85298 10.0717 9.375 10.4382 10.044C10.8089 10.7088 10.9943 11.4759 10.9943 12.3452C10.9943 13.2145 10.8068 13.9815 10.4318 14.6463C10.0568 15.3111 9.51349 15.8288 8.80185 16.1996C8.09446 16.5703 7.23793 16.7557 6.23224 16.7557H2.94034V14.5376H5.7848C6.31747 14.5376 6.75639 14.446 7.10156 14.2628C7.45099 14.0753 7.71094 13.8175 7.88139 13.4893C8.05611 13.157 8.14347 12.7756 8.14347 12.3452C8.14347 11.9105 8.05611 11.5312 7.88139 11.2074C7.71094 10.8793 7.45099 10.6257 7.10156 10.4467C6.75213 10.2635 6.30895 10.1719 5.77202 10.1719H3.90554V21H1.13778ZM15.277 21.1854C14.6506 21.1854 14.0923 21.0767 13.6023 20.8594C13.1122 20.6378 12.7244 20.3118 12.4389 19.8814C12.1577 19.4467 12.017 18.9055 12.017 18.2578C12.017 17.7124 12.1172 17.2543 12.3175 16.8835C12.5178 16.5128 12.7905 16.2145 13.1357 15.9886C13.4808 15.7628 13.8729 15.5923 14.3118 15.4773C14.755 15.3622 15.2195 15.2812 15.7053 15.2344C16.2763 15.1747 16.7365 15.1193 17.0859 15.0682C17.4354 15.0128 17.6889 14.9318 17.8466 14.8253C18.0043 14.7187 18.0831 14.5611 18.0831 14.3523V14.3139C18.0831 13.9091 17.9553 13.5959 17.6996 13.3743C17.4482 13.1527 17.0902 13.0419 16.6257 13.0419C16.1357 13.0419 15.7457 13.1506 15.456 13.3679C15.1662 13.581 14.9744 13.8494 14.8807 14.1733L12.3622 13.9688C12.4901 13.3722 12.7415 12.8565 13.1165 12.4219C13.4915 11.983 13.9751 11.6463 14.5675 11.4119C15.1641 11.1733 15.8544 11.054 16.6385 11.054C17.1839 11.054 17.706 11.1179 18.2045 11.2457C18.7074 11.3736 19.1527 11.5717 19.5405 11.8402C19.9325 12.1087 20.2415 12.4538 20.4673 12.8757C20.6932 13.2933 20.8061 13.794 20.8061 14.3778V21H18.2237V19.6385H18.147C17.9893 19.9453 17.7784 20.2159 17.5142 20.4503C17.25 20.6804 16.9325 20.8615 16.5618 20.9936C16.1911 21.1214 15.7628 21.1854 15.277 21.1854ZM16.0568 19.3061C16.4574 19.3061 16.8111 19.2273 17.1179 19.0696C17.4247 18.9077 17.6655 18.6903 17.8402 18.4176C18.0149 18.1449 18.1023 17.8359 18.1023 17.4908V16.4489C18.017 16.5043 17.8999 16.5554 17.7507 16.6023C17.6058 16.6449 17.4418 16.6854 17.2585 16.7237C17.0753 16.7578 16.892 16.7898 16.7088 16.8196C16.5256 16.8452 16.3594 16.8686 16.2102 16.8899C15.8906 16.9368 15.6115 17.0114 15.3729 17.1136C15.1342 17.2159 14.9489 17.3544 14.8168 17.5291C14.6847 17.6996 14.6186 17.9126 14.6186 18.1683C14.6186 18.5391 14.7528 18.8224 15.0213 19.0185C15.294 19.2102 15.6392 19.3061 16.0568 19.3061ZM25.6417 15.3239V21H22.9187V11.1818H25.5138V12.9141H25.6289C25.8462 12.343 26.2106 11.8913 26.7219 11.5589C27.2333 11.2223 27.8533 11.054 28.582 11.054C29.2638 11.054 29.8583 11.2031 30.3654 11.5014C30.8725 11.7997 31.2667 12.2259 31.5479 12.7798C31.8292 13.3295 31.9698 13.9858 31.9698 14.7486V21H29.2468V15.2344C29.2511 14.6335 29.0977 14.1648 28.7866 13.8281C28.4755 13.4872 28.0472 13.3168 27.5018 13.3168C27.1353 13.3168 26.8114 13.3956 26.5302 13.5533C26.2532 13.7109 26.0359 13.9411 25.8782 14.2436C25.7248 14.5419 25.646 14.902 25.6417 15.3239ZM38.5904 21.1918C37.5804 21.1918 36.7111 20.9872 35.9824 20.5781C35.258 20.1648 34.6998 19.581 34.3077 18.8267C33.9157 18.0682 33.7196 17.1712 33.7196 16.1357C33.7196 15.1257 33.9157 14.2393 34.3077 13.4766C34.6998 12.7138 35.2516 12.1193 35.9632 11.6932C36.6792 11.267 37.5186 11.054 38.4817 11.054C39.1294 11.054 39.7324 11.1584 40.2907 11.3672C40.8532 11.5717 41.3432 11.8807 41.7608 12.294C42.1827 12.7074 42.5108 13.2273 42.7452 13.8537C42.9796 14.4759 43.0968 15.2045 43.0968 16.0398V16.7876H34.8063V15.1001H40.5336C40.5336 14.7081 40.4483 14.3608 40.2779 14.0582C40.1074 13.7557 39.8709 13.5192 39.5684 13.3487C39.2701 13.174 38.9228 13.0866 38.5265 13.0866C38.1131 13.0866 37.7466 13.1825 37.427 13.3743C37.1117 13.5618 36.8645 13.8153 36.6855 14.1349C36.5066 14.4503 36.415 14.8018 36.4107 15.1896V16.794C36.4107 17.2798 36.5002 17.6996 36.6792 18.0533C36.8624 18.407 37.1202 18.6797 37.4526 18.8714C37.785 19.0632 38.1792 19.1591 38.6351 19.1591C38.9377 19.1591 39.2147 19.1165 39.4661 19.0312C39.7175 18.946 39.9327 18.8182 40.1117 18.6477C40.2907 18.4773 40.427 18.2685 40.5208 18.0213L43.0392 18.1875C42.9114 18.7926 42.6493 19.321 42.253 19.7727C41.861 20.2202 41.3539 20.5696 40.7317 20.821C40.1138 21.0682 39.4 21.1918 38.5904 21.1918ZM47.5968 7.90909V21H44.8738V7.90909H47.5968ZM53.9952 21V7.90909H59.16C60.1529 7.90909 60.9988 8.09872 61.6976 8.47798C62.3965 8.85298 62.9292 9.375 63.2956 10.044C63.6664 10.7088 63.8517 11.4759 63.8517 12.3452C63.8517 13.2145 63.6642 13.9815 63.2892 14.6463C62.9142 15.3111 62.3709 15.8288 61.6593 16.1996C60.9519 16.5703 60.0953 16.7557 59.0897 16.7557H55.7978V14.5376H58.6422C59.1749 14.5376 59.6138 14.446 59.959 14.2628C60.3084 14.0753 60.5684 13.8175 60.7388 13.4893C60.9135 13.157 61.0009 12.7756 61.0009 12.3452C61.0009 11.9105 60.9135 11.5312 60.7388 11.2074C60.5684 10.8793 60.3084 10.6257 59.959 10.4467C59.6096 10.2635 59.1664 10.1719 58.6294 10.1719H56.763V21H53.9952ZM65.5984 21V11.1818H68.2383V12.8949H68.3406C68.5195 12.2855 68.82 11.8253 69.2418 11.5142C69.6637 11.1989 70.1495 11.0412 70.6992 11.0412C70.8356 11.0412 70.9826 11.0497 71.1403 11.0668C71.2979 11.0838 71.4364 11.1072 71.5558 11.1371V13.5533C71.4279 13.5149 71.2511 13.4808 71.0252 13.451C70.7994 13.4212 70.5927 13.4062 70.4052 13.4062C70.0046 13.4062 69.6467 13.4936 69.3313 13.6683C69.0202 13.8388 68.7731 14.0774 68.5898 14.3842C68.4109 14.6911 68.3214 15.0447 68.3214 15.4453V21H65.5984ZM76.9426 21.1918C75.9498 21.1918 75.0911 20.9808 74.3667 20.5589C73.6465 20.1328 73.0904 19.5405 72.6983 18.782C72.3063 18.0192 72.1103 17.1349 72.1103 16.1293C72.1103 15.1151 72.3063 14.2287 72.6983 13.4702C73.0904 12.7074 73.6465 12.1151 74.3667 11.6932C75.0911 11.267 75.9498 11.054 76.9426 11.054C77.9355 11.054 78.7921 11.267 79.5123 11.6932C80.2367 12.1151 80.7949 12.7074 81.187 13.4702C81.579 14.2287 81.775 15.1151 81.775 16.1293C81.775 17.1349 81.579 18.0192 81.187 18.782C80.7949 19.5405 80.2367 20.1328 79.5123 20.5589C78.7921 20.9808 77.9355 21.1918 76.9426 21.1918ZM76.9554 19.0824C77.4071 19.0824 77.7843 18.9545 78.0868 18.6989C78.3894 18.4389 78.6174 18.0852 78.7708 17.6378C78.9284 17.1903 79.0073 16.6811 79.0073 16.1101C79.0073 15.5391 78.9284 15.0298 78.7708 14.5824C78.6174 14.1349 78.3894 13.7812 78.0868 13.5213C77.7843 13.2614 77.4071 13.1314 76.9554 13.1314C76.4995 13.1314 76.1159 13.2614 75.8049 13.5213C75.498 13.7812 75.2658 14.1349 75.1081 14.5824C74.9547 15.0298 74.878 15.5391 74.878 16.1101C74.878 16.6811 74.9547 17.1903 75.1081 17.6378C75.2658 18.0852 75.498 18.4389 75.8049 18.6989C76.1159 18.9545 76.4995 19.0824 76.9554 19.0824Z" fill="white"/>
<path d="M1.05682 40V31.2727H2.0625V34.4943H2.14773C2.22159 34.3807 2.32386 34.2358 2.45455 34.0597C2.58807 33.8807 2.77841 33.7216 3.02557 33.5824C3.27557 33.4403 3.61364 33.3693 4.03977 33.3693C4.59091 33.3693 5.0767 33.5071 5.49716 33.7827C5.91761 34.0582 6.24574 34.4489 6.48153 34.9545C6.71733 35.4602 6.83523 36.0568 6.83523 36.7443C6.83523 37.4375 6.71733 38.0384 6.48153 38.5469C6.24574 39.0526 5.91903 39.4446 5.50142 39.723C5.08381 39.9986 4.60227 40.1364 4.05682 40.1364C3.63636 40.1364 3.29972 40.0668 3.04688 39.9276C2.79403 39.7855 2.59943 39.625 2.46307 39.446C2.3267 39.2642 2.22159 39.1136 2.14773 38.9943H2.02841V40H1.05682ZM2.04545 36.7273C2.04545 37.2216 2.1179 37.6577 2.26278 38.0355C2.40767 38.4105 2.61932 38.7045 2.89773 38.9176C3.17614 39.1278 3.51705 39.233 3.92045 39.233C4.34091 39.233 4.69176 39.1222 4.97301 38.9006C5.2571 38.6761 5.47017 38.375 5.61222 37.9972C5.7571 37.6165 5.82955 37.1932 5.82955 36.7273C5.82955 36.267 5.75852 35.8523 5.61648 35.483C5.47727 35.1108 5.26563 34.8168 4.98153 34.6009C4.70028 34.3821 4.34659 34.2727 3.92045 34.2727C3.51136 34.2727 3.16761 34.3764 2.8892 34.5838C2.6108 34.7884 2.40057 35.0753 2.25852 35.4446C2.11648 35.8111 2.04545 36.2386 2.04545 36.7273ZM8.78693 42.4545C8.61648 42.4545 8.46449 42.4403 8.33097 42.4119C8.19744 42.3864 8.10511 42.3608 8.05398 42.3352L8.30966 41.4489C8.55398 41.5114 8.76989 41.5341 8.95739 41.517C9.14489 41.5 9.31108 41.4162 9.45597 41.2656C9.60369 41.1179 9.73864 40.8778 9.8608 40.5455L10.0483 40.0341L7.62784 33.4545H8.71875L10.5256 38.6705H10.5938L12.4006 33.4545H13.4915L10.7131 40.9545C10.5881 41.2926 10.4332 41.5724 10.2486 41.794C10.0639 42.0185 9.84943 42.1847 9.60511 42.2926C9.36364 42.4006 9.09091 42.4545 8.78693 42.4545ZM24.0575 31.2727H25.1143V37.0511C25.1143 37.6477 24.9737 38.1804 24.6925 38.6491C24.4141 39.1151 24.0206 39.483 23.5121 39.7528C23.0036 40.0199 22.407 40.1534 21.7223 40.1534C21.0376 40.1534 20.4411 40.0199 19.9325 39.7528C19.424 39.483 19.0291 39.1151 18.7479 38.6491C18.4695 38.1804 18.3303 37.6477 18.3303 37.0511V31.2727H19.3871V36.9659C19.3871 37.392 19.4808 37.7713 19.6683 38.1037C19.8558 38.4332 20.1229 38.6932 20.4695 38.8835C20.8189 39.071 21.2365 39.1648 21.7223 39.1648C22.2081 39.1648 22.6257 39.071 22.9751 38.8835C23.3246 38.6932 23.5916 38.4332 23.7763 38.1037C23.9638 37.7713 24.0575 37.392 24.0575 36.9659V31.2727ZM31.7248 34.9205L30.8214 35.1761C30.7646 35.0256 30.6808 34.8793 30.57 34.7372C30.462 34.5923 30.3143 34.473 30.1268 34.3793C29.9393 34.2855 29.6992 34.2386 29.4066 34.2386C29.006 34.2386 28.6722 34.331 28.4052 34.5156C28.141 34.6974 28.0089 34.929 28.0089 35.2102C28.0089 35.4602 28.0998 35.6577 28.2816 35.8026C28.4634 35.9474 28.7475 36.0682 29.1339 36.1648L30.1055 36.4034C30.6907 36.5455 31.1268 36.7628 31.4137 37.0554C31.7006 37.3452 31.8441 37.7187 31.8441 38.1761C31.8441 38.5511 31.7362 38.8864 31.5202 39.1818C31.3072 39.4773 31.0089 39.7102 30.6254 39.8807C30.2418 40.0511 29.7958 40.1364 29.2873 40.1364C28.6197 40.1364 28.0671 39.9915 27.6296 39.7017C27.1921 39.4119 26.9151 38.9886 26.7987 38.4318L27.7532 38.1932C27.8441 38.5455 28.016 38.8097 28.2688 38.9858C28.5245 39.1619 28.8583 39.25 29.2702 39.25C29.739 39.25 30.1112 39.1506 30.3867 38.9517C30.6651 38.75 30.8043 38.5085 30.8043 38.2273C30.8043 38 30.7248 37.8097 30.5657 37.6562C30.4066 37.5 30.1623 37.3835 29.8327 37.3068L28.7418 37.0511C28.1424 36.9091 27.7021 36.6889 27.4208 36.3906C27.1424 36.0895 27.0032 35.7131 27.0032 35.2614C27.0032 34.892 27.1069 34.5653 27.3143 34.2812C27.5245 33.9972 27.81 33.7741 28.1708 33.6122C28.5344 33.4503 28.9464 33.3693 29.4066 33.3693C30.0543 33.3693 30.5629 33.5114 30.9322 33.7955C31.3043 34.0795 31.5685 34.4545 31.7248 34.9205ZM36.1023 40.1364C35.4716 40.1364 34.9276 39.9972 34.4702 39.7188C34.0156 39.4375 33.6648 39.0455 33.4176 38.5426C33.1733 38.0369 33.0511 37.4489 33.0511 36.7784C33.0511 36.108 33.1733 35.517 33.4176 35.0057C33.6648 34.4915 34.0085 34.0909 34.4489 33.804C34.892 33.5142 35.4091 33.3693 36 33.3693C36.3409 33.3693 36.6776 33.4261 37.0099 33.5398C37.3423 33.6534 37.6449 33.8381 37.9176 34.0938C38.1903 34.3466 38.4077 34.6818 38.5696 35.0994C38.7315 35.517 38.8125 36.0312 38.8125 36.642V37.0682H33.767V36.1989H37.7898C37.7898 35.8295 37.7159 35.5 37.5682 35.2102C37.4233 34.9205 37.2159 34.6918 36.946 34.5241C36.679 34.3565 36.3636 34.2727 36 34.2727C35.5994 34.2727 35.2528 34.3722 34.9602 34.571C34.6705 34.767 34.4474 35.0227 34.2912 35.3381C34.1349 35.6534 34.0568 35.9915 34.0568 36.3523V36.9318C34.0568 37.4261 34.142 37.8452 34.3125 38.1889C34.4858 38.5298 34.7259 38.7898 35.0327 38.9688C35.3395 39.1449 35.696 39.233 36.1023 39.233C36.3665 39.233 36.6051 39.196 36.8182 39.1222C37.0341 39.0455 37.2202 38.9318 37.3764 38.7812C37.5327 38.6278 37.6534 38.4375 37.7386 38.2102L38.7102 38.483C38.608 38.8125 38.4361 39.1023 38.1946 39.3523C37.9531 39.5994 37.6548 39.7926 37.2997 39.9318C36.9446 40.0682 36.5455 40.1364 36.1023 40.1364ZM40.3423 40V33.4545H41.3139V34.4432H41.3821C41.5014 34.1193 41.7173 33.8565 42.0298 33.6548C42.3423 33.4531 42.6946 33.3523 43.0866 33.3523C43.1605 33.3523 43.2528 33.3537 43.3636 33.3565C43.4744 33.3594 43.5582 33.3636 43.6151 33.3693V34.392C43.581 34.3835 43.5028 34.3707 43.3807 34.3537C43.2614 34.3338 43.1349 34.3239 43.0014 34.3239C42.6832 34.3239 42.3991 34.3906 42.1491 34.5241C41.902 34.6548 41.706 34.8366 41.5611 35.0696C41.419 35.2997 41.348 35.5625 41.348 35.858V40H40.3423ZM48.3185 40V31.2727H51.2674C51.9492 31.2727 52.5089 31.3892 52.9464 31.6222C53.3839 31.8523 53.7077 32.169 53.918 32.5724C54.1282 32.9759 54.2333 33.4347 54.2333 33.9489C54.2333 34.4631 54.1282 34.919 53.918 35.3168C53.7077 35.7145 53.3853 36.027 52.9506 36.2543C52.516 36.4787 51.9606 36.5909 51.2844 36.5909H48.8981V35.6364H51.2504C51.7163 35.6364 52.0913 35.5682 52.3754 35.4318C52.6623 35.2955 52.8697 35.1023 52.9975 34.8523C53.1282 34.5994 53.1935 34.2983 53.1935 33.9489C53.1935 33.5994 53.1282 33.294 52.9975 33.0327C52.8668 32.7713 52.658 32.5696 52.3711 32.4276C52.0842 32.2827 51.7049 32.2102 51.2333 32.2102H49.3754V40H48.3185ZM52.4265 36.0795L54.5742 40H53.3469L51.2333 36.0795H52.4265ZM58.532 40.1364C57.9013 40.1364 57.3572 39.9972 56.8999 39.7188C56.4453 39.4375 56.0945 39.0455 55.8473 38.5426C55.603 38.0369 55.4808 37.4489 55.4808 36.7784C55.4808 36.108 55.603 35.517 55.8473 35.0057C56.0945 34.4915 56.4382 34.0909 56.8786 33.804C57.3217 33.5142 57.8388 33.3693 58.4297 33.3693C58.7706 33.3693 59.1072 33.4261 59.4396 33.5398C59.772 33.6534 60.0746 33.8381 60.3473 34.0938C60.62 34.3466 60.8374 34.6818 60.9993 35.0994C61.1612 35.517 61.2422 36.0312 61.2422 36.642V37.0682H56.1967V36.1989H60.2195C60.2195 35.8295 60.1456 35.5 59.9979 35.2102C59.853 34.9205 59.6456 34.6918 59.3757 34.5241C59.1087 34.3565 58.7933 34.2727 58.4297 34.2727C58.0291 34.2727 57.6825 34.3722 57.3899 34.571C57.1001 34.767 56.8771 35.0227 56.7209 35.3381C56.5646 35.6534 56.4865 35.9915 56.4865 36.3523V36.9318C56.4865 37.4261 56.5717 37.8452 56.7422 38.1889C56.9155 38.5298 57.1555 38.7898 57.4624 38.9688C57.7692 39.1449 58.1257 39.233 58.532 39.233C58.7962 39.233 59.0348 39.196 59.2479 39.1222C59.4638 39.0455 59.6499 38.9318 59.8061 38.7812C59.9624 38.6278 60.0831 38.4375 60.1683 38.2102L61.1399 38.483C61.0376 38.8125 60.8658 39.1023 60.6243 39.3523C60.3828 39.5994 60.0845 39.7926 59.7294 39.9318C59.3743 40.0682 58.9751 40.1364 58.532 40.1364ZM67.4084 34.9205L66.505 35.1761C66.4482 35.0256 66.3643 34.8793 66.2536 34.7372C66.1456 34.5923 65.9979 34.473 65.8104 34.3793C65.6229 34.2855 65.3828 34.2386 65.0902 34.2386C64.6896 34.2386 64.3558 34.331 64.0888 34.5156C63.8246 34.6974 63.6925 34.929 63.6925 35.2102C63.6925 35.4602 63.7834 35.6577 63.9652 35.8026C64.147 35.9474 64.4311 36.0682 64.8175 36.1648L65.7891 36.4034C66.3743 36.5455 66.8104 36.7628 67.0973 37.0554C67.3842 37.3452 67.5277 37.7187 67.5277 38.1761C67.5277 38.5511 67.4197 38.8864 67.2038 39.1818C66.9908 39.4773 66.6925 39.7102 66.3089 39.8807C65.9254 40.0511 65.4794 40.1364 64.9709 40.1364C64.3033 40.1364 63.7507 39.9915 63.3132 39.7017C62.8757 39.4119 62.5987 38.9886 62.4822 38.4318L63.4368 38.1932C63.5277 38.5455 63.6996 38.8097 63.9524 38.9858C64.2081 39.1619 64.5419 39.25 64.9538 39.25C65.4226 39.25 65.7947 39.1506 66.0703 38.9517C66.3487 38.75 66.4879 38.5085 66.4879 38.2273C66.4879 38 66.4084 37.8097 66.2493 37.6562C66.0902 37.5 65.8459 37.3835 65.5163 37.3068L64.4254 37.0511C63.826 36.9091 63.3857 36.6889 63.1044 36.3906C62.826 36.0895 62.6868 35.7131 62.6868 35.2614C62.6868 34.892 62.7905 34.5653 62.9979 34.2812C63.2081 33.9972 63.4936 33.7741 63.8544 33.6122C64.218 33.4503 64.63 33.3693 65.0902 33.3693C65.7379 33.3693 66.2464 33.5114 66.6158 33.7955C66.9879 34.0795 67.2521 34.4545 67.4084 34.9205ZM71.7859 40.1364C71.1552 40.1364 70.6112 39.9972 70.1538 39.7188C69.6992 39.4375 69.3484 39.0455 69.1012 38.5426C68.8569 38.0369 68.7347 37.4489 68.7347 36.7784C68.7347 36.108 68.8569 35.517 69.1012 35.0057C69.3484 34.4915 69.6921 34.0909 70.1325 33.804C70.5756 33.5142 71.0927 33.3693 71.6836 33.3693C72.0245 33.3693 72.3612 33.4261 72.6935 33.5398C73.0259 33.6534 73.3285 33.8381 73.6012 34.0938C73.8739 34.3466 74.0913 34.6818 74.2532 35.0994C74.4151 35.517 74.4961 36.0312 74.4961 36.642V37.0682H69.4506V36.1989H73.4734C73.4734 35.8295 73.3995 35.5 73.2518 35.2102C73.1069 34.9205 72.8995 34.6918 72.6296 34.5241C72.3626 34.3565 72.0472 34.2727 71.6836 34.2727C71.283 34.2727 70.9364 34.3722 70.6438 34.571C70.354 34.767 70.131 35.0227 69.9748 35.3381C69.8185 35.6534 69.7404 35.9915 69.7404 36.3523V36.9318C69.7404 37.4261 69.8256 37.8452 69.9961 38.1889C70.1694 38.5298 70.4094 38.7898 70.7163 38.9688C71.0231 39.1449 71.3796 39.233 71.7859 39.233C72.0501 39.233 72.2887 39.196 72.5018 39.1222C72.7177 39.0455 72.9038 38.9318 73.06 38.7812C73.2163 38.6278 73.337 38.4375 73.4222 38.2102L74.3938 38.483C74.2915 38.8125 74.1197 39.1023 73.8782 39.3523C73.6367 39.5994 73.3384 39.7926 72.9833 39.9318C72.6282 40.0682 72.229 40.1364 71.7859 40.1364ZM77.9521 40.1534C77.5373 40.1534 77.1609 40.0753 76.8228 39.919C76.4847 39.7599 76.2163 39.5312 76.0174 39.233C75.8185 38.9318 75.7191 38.5682 75.7191 38.142C75.7191 37.767 75.793 37.4631 75.9407 37.2301C76.0884 36.9943 76.2859 36.8097 76.533 36.6761C76.7802 36.5426 77.0529 36.4432 77.3512 36.3778C77.6523 36.3097 77.9549 36.2557 78.2589 36.2159C78.6566 36.1648 78.979 36.1264 79.2262 36.1009C79.4762 36.0724 79.658 36.0256 79.7717 35.9602C79.8881 35.8949 79.9464 35.7812 79.9464 35.6193V35.5852C79.9464 35.1648 79.8313 34.8381 79.6012 34.6051C79.3739 34.3722 79.0288 34.2557 78.5657 34.2557C78.0856 34.2557 77.7092 34.3608 77.4364 34.571C77.1637 34.7812 76.9719 35.0057 76.8612 35.2443L75.9066 34.9034C76.0771 34.5057 76.3043 34.196 76.5884 33.9744C76.8754 33.75 77.1879 33.5937 77.5259 33.5057C77.8668 33.4148 78.2021 33.3693 78.5316 33.3693C78.7418 33.3693 78.9833 33.3949 79.256 33.446C79.5316 33.4943 79.7972 33.5952 80.0529 33.7486C80.3114 33.902 80.5259 34.1335 80.6964 34.4432C80.8668 34.7528 80.9521 35.1676 80.9521 35.6875V40H79.9464V39.1136H79.8952C79.8271 39.2557 79.7134 39.4077 79.5543 39.5696C79.3952 39.7315 79.1836 39.8693 78.9194 39.983C78.6552 40.0966 78.3327 40.1534 77.9521 40.1534ZM78.1055 39.25C78.5032 39.25 78.8384 39.1719 79.1112 39.0156C79.3867 38.8594 79.5941 38.6577 79.7333 38.4105C79.8754 38.1634 79.9464 37.9034 79.9464 37.6307V36.7102C79.9038 36.7614 79.81 36.8082 79.6651 36.8509C79.5231 36.8906 79.3583 36.9261 79.1708 36.9574C78.9862 36.9858 78.8058 37.0114 78.6296 37.0341C78.4563 37.054 78.3157 37.071 78.2077 37.0852C77.9464 37.1193 77.7021 37.1747 77.4748 37.2514C77.2504 37.3253 77.0685 37.4375 76.9293 37.5881C76.793 37.7358 76.7248 37.9375 76.7248 38.1932C76.7248 38.5426 76.854 38.8068 77.1126 38.9858C77.3739 39.1619 77.7049 39.25 78.1055 39.25ZM82.7876 40V33.4545H83.7592V34.4432H83.8274C83.9467 34.1193 84.1626 33.8565 84.4751 33.6548C84.7876 33.4531 85.1399 33.3523 85.532 33.3523C85.6058 33.3523 85.6982 33.3537 85.8089 33.3565C85.9197 33.3594 86.0036 33.3636 86.0604 33.3693V34.392C86.0263 34.3835 85.9482 34.3707 85.826 34.3537C85.7067 34.3338 85.5803 34.3239 85.4467 34.3239C85.1286 34.3239 84.8445 34.3906 84.5945 34.5241C84.3473 34.6548 84.1513 34.8366 84.0064 35.0696C83.8643 35.2997 83.7933 35.5625 83.7933 35.858V40H82.7876ZM89.7124 40.1364C89.0987 40.1364 88.5703 39.9915 88.1271 39.7017C87.6839 39.4119 87.343 39.0128 87.1044 38.5043C86.8658 37.9957 86.7464 37.4148 86.7464 36.7614C86.7464 36.0966 86.8686 35.5099 87.1129 35.0014C87.3601 34.4901 87.7038 34.0909 88.1442 33.804C88.5874 33.5142 89.1044 33.3693 89.6953 33.3693C90.1555 33.3693 90.5703 33.4545 90.9396 33.625C91.3089 33.7955 91.6115 34.0341 91.8473 34.3409C92.0831 34.6477 92.2294 35.0057 92.2862 35.4148H91.2805C91.2038 35.1165 91.0334 34.8523 90.7692 34.6222C90.5078 34.3892 90.1555 34.2727 89.7124 34.2727C89.3203 34.2727 88.9766 34.375 88.6811 34.5795C88.3885 34.7812 88.1598 35.0668 87.995 35.4361C87.8331 35.8026 87.7521 36.233 87.7521 36.7273C87.7521 37.233 87.8317 37.6733 87.9908 38.0483C88.1527 38.4233 88.38 38.7145 88.6726 38.9219C88.968 39.1293 89.3146 39.233 89.7124 39.233C89.9737 39.233 90.2109 39.1875 90.424 39.0966C90.6371 39.0057 90.8175 38.875 90.9652 38.7045C91.1129 38.5341 91.218 38.3295 91.2805 38.0909H92.2862C92.2294 38.4773 92.0888 38.8253 91.8643 39.1349C91.6428 39.4418 91.3487 39.6861 90.9822 39.8679C90.6186 40.0469 90.1953 40.1364 89.7124 40.1364ZM94.7621 36.0625V40H93.7564V31.2727H94.7621V34.4773H94.8473C95.0007 34.1392 95.2308 33.8707 95.5376 33.6719C95.8473 33.4702 96.2592 33.3693 96.7734 33.3693C97.2195 33.3693 97.6101 33.4588 97.9453 33.6378C98.2805 33.8139 98.5405 34.0852 98.7251 34.4517C98.9126 34.8153 99.0064 35.2784 99.0064 35.8409V40H98.0007V35.9091C98.0007 35.3892 97.8658 34.9872 97.5959 34.7031C97.3288 34.4162 96.9581 34.2727 96.4837 34.2727C96.1541 34.2727 95.8587 34.3423 95.5973 34.4815C95.3388 34.6207 95.1342 34.8239 94.9837 35.0909C94.8359 35.358 94.7621 35.6818 94.7621 36.0625ZM105.414 31.2727V40H104.358V31.2727H105.414ZM108.403 36.0625V40H107.397V33.4545H108.369V34.4773H108.454C108.607 34.1449 108.84 33.8778 109.153 33.6761C109.465 33.4716 109.869 33.3693 110.363 33.3693C110.806 33.3693 111.194 33.4602 111.526 33.642C111.859 33.821 112.117 34.0938 112.302 34.4602C112.487 34.8239 112.579 35.2841 112.579 35.8409V40H111.573V35.9091C111.573 35.3949 111.44 34.9943 111.173 34.7074C110.906 34.4176 110.539 34.2727 110.073 34.2727C109.752 34.2727 109.465 34.3423 109.212 34.4815C108.962 34.6207 108.765 34.8239 108.62 35.0909C108.475 35.358 108.403 35.6818 108.403 36.0625ZM117.263 33.4545V34.3068H113.871V33.4545H117.263ZM114.86 31.8864H115.865V38.125C115.865 38.4091 115.907 38.6222 115.989 38.7642C116.074 38.9034 116.182 38.9972 116.313 39.0455C116.446 39.0909 116.587 39.1136 116.735 39.1136C116.846 39.1136 116.936 39.108 117.007 39.0966C117.078 39.0824 117.135 39.071 117.178 39.0625L117.382 39.9659C117.314 39.9915 117.219 40.017 117.097 40.0426C116.975 40.071 116.82 40.0852 116.632 40.0852C116.348 40.0852 116.07 40.0241 115.797 39.902C115.527 39.7798 115.303 39.5938 115.124 39.3438C114.948 39.0938 114.86 38.7784 114.86 38.3977V31.8864ZM121.45 40.1364C120.819 40.1364 120.275 39.9972 119.818 39.7188C119.363 39.4375 119.012 39.0455 118.765 38.5426C118.521 38.0369 118.399 37.4489 118.399 36.7784C118.399 36.108 118.521 35.517 118.765 35.0057C119.012 34.4915 119.356 34.0909 119.797 33.804C120.24 33.5142 120.757 33.3693 121.348 33.3693C121.689 33.3693 122.025 33.4261 122.358 33.5398C122.69 33.6534 122.993 33.8381 123.265 34.0938C123.538 34.3466 123.755 34.6818 123.917 35.0994C124.079 35.517 124.16 36.0312 124.16 36.642V37.0682H119.115V36.1989H123.137C123.137 35.8295 123.064 35.5 122.916 35.2102C122.771 34.9205 122.564 34.6918 122.294 34.5241C122.027 34.3565 121.711 34.2727 121.348 34.2727C120.947 34.2727 120.6 34.3722 120.308 34.571C120.018 34.767 119.795 35.0227 119.639 35.3381C119.483 35.6534 119.404 35.9915 119.404 36.3523V36.9318C119.404 37.4261 119.49 37.8452 119.66 38.1889C119.833 38.5298 120.074 38.7898 120.38 38.9688C120.687 39.1449 121.044 39.233 121.45 39.233C121.714 39.233 121.953 39.196 122.166 39.1222C122.382 39.0455 122.568 38.9318 122.724 38.7812C122.88 38.6278 123.001 38.4375 123.086 38.2102L124.058 38.483C123.956 38.8125 123.784 39.1023 123.542 39.3523C123.301 39.5994 123.002 39.7926 122.647 39.9318C122.292 40.0682 121.893 40.1364 121.45 40.1364ZM125.69 40V33.4545H126.662V34.4432H126.73C126.849 34.1193 127.065 33.8565 127.377 33.6548C127.69 33.4531 128.042 33.3523 128.434 33.3523C128.508 33.3523 128.6 33.3537 128.711 33.3565C128.822 33.3594 128.906 33.3636 128.963 33.3693V34.392C128.929 34.3835 128.85 34.3707 128.728 34.3537C128.609 34.3338 128.483 34.3239 128.349 34.3239C128.031 34.3239 127.747 34.3906 127.497 34.5241C127.25 34.6548 127.054 34.8366 126.909 35.0696C126.767 35.2997 126.696 35.5625 126.696 35.858V40H125.69ZM131.161 36.0625V40H130.155V33.4545H131.126V34.4773H131.212C131.365 34.1449 131.598 33.8778 131.911 33.6761C132.223 33.4716 132.626 33.3693 133.121 33.3693C133.564 33.3693 133.952 33.4602 134.284 33.642C134.616 33.821 134.875 34.0938 135.06 34.4602C135.244 34.8239 135.337 35.2841 135.337 35.8409V40H134.331V35.9091C134.331 35.3949 134.197 34.9943 133.93 34.7074C133.663 34.4176 133.297 34.2727 132.831 34.2727C132.51 34.2727 132.223 34.3423 131.97 34.4815C131.72 34.6207 131.523 34.8239 131.378 35.0909C131.233 35.358 131.161 35.6818 131.161 36.0625ZM139.1 40.1534C138.686 40.1534 138.309 40.0753 137.971 39.919C137.633 39.7599 137.365 39.5312 137.166 39.233C136.967 38.9318 136.868 38.5682 136.868 38.142C136.868 37.767 136.941 37.4631 137.089 37.2301C137.237 36.9943 137.434 36.8097 137.681 36.6761C137.929 36.5426 138.201 36.4432 138.5 36.3778C138.801 36.3097 139.103 36.2557 139.407 36.2159C139.805 36.1648 140.127 36.1264 140.375 36.1009C140.625 36.0724 140.806 36.0256 140.92 35.9602C141.037 35.8949 141.095 35.7812 141.095 35.6193V35.5852C141.095 35.1648 140.98 34.8381 140.75 34.6051C140.522 34.3722 140.177 34.2557 139.714 34.2557C139.234 34.2557 138.858 34.3608 138.585 34.571C138.312 34.7812 138.12 35.0057 138.01 35.2443L137.055 34.9034C137.225 34.5057 137.453 34.196 137.737 33.9744C138.024 33.75 138.336 33.5937 138.674 33.5057C139.015 33.4148 139.35 33.3693 139.68 33.3693C139.89 33.3693 140.132 33.3949 140.404 33.446C140.68 33.4943 140.946 33.5952 141.201 33.7486C141.46 33.902 141.674 34.1335 141.845 34.4432C142.015 34.7528 142.1 35.1676 142.1 35.6875V40H141.095V39.1136H141.044C140.975 39.2557 140.862 39.4077 140.703 39.5696C140.544 39.7315 140.332 39.8693 140.068 39.983C139.804 40.0966 139.481 40.1534 139.1 40.1534ZM139.254 39.25C139.652 39.25 139.987 39.1719 140.26 39.0156C140.535 38.8594 140.743 38.6577 140.882 38.4105C141.024 38.1634 141.095 37.9034 141.095 37.6307V36.7102C141.052 36.7614 140.958 36.8082 140.814 36.8509C140.672 36.8906 140.507 36.9261 140.319 36.9574C140.135 36.9858 139.954 37.0114 139.778 37.0341C139.605 37.054 139.464 37.071 139.356 37.0852C139.095 37.1193 138.85 37.1747 138.623 37.2514C138.399 37.3253 138.217 37.4375 138.078 37.5881C137.941 37.7358 137.873 37.9375 137.873 38.1932C137.873 38.5426 138.002 38.8068 138.261 38.9858C138.522 39.1619 138.853 39.25 139.254 39.25ZM146.783 33.4545V34.3068H143.391V33.4545H146.783ZM144.379 31.8864H145.385V38.125C145.385 38.4091 145.426 38.6222 145.509 38.7642C145.594 38.9034 145.702 38.9972 145.832 39.0455C145.966 39.0909 146.107 39.1136 146.254 39.1136C146.365 39.1136 146.456 39.108 146.527 39.0966C146.598 39.0824 146.655 39.071 146.697 39.0625L146.902 39.9659C146.834 39.9915 146.739 40.017 146.616 40.0426C146.494 40.071 146.339 40.0852 146.152 40.0852C145.868 40.0852 145.589 40.0241 145.317 39.902C145.047 39.7798 144.822 39.5938 144.643 39.3438C144.467 39.0938 144.379 38.7784 144.379 38.3977V31.8864ZM148.295 40V33.4545H149.301V40H148.295ZM148.807 32.3636C148.611 32.3636 148.442 32.2969 148.3 32.1634C148.161 32.0298 148.091 31.8693 148.091 31.6818C148.091 31.4943 148.161 31.3338 148.3 31.2003C148.442 31.0668 148.611 31 148.807 31C149.003 31 149.17 31.0668 149.31 31.2003C149.452 31.3338 149.523 31.4943 149.523 31.6818C149.523 31.8693 149.452 32.0298 149.31 32.1634C149.17 32.2969 149.003 32.3636 148.807 32.3636ZM153.802 40.1364C153.211 40.1364 152.693 39.9957 152.247 39.7145C151.804 39.4332 151.457 39.0398 151.207 38.5341C150.96 38.0284 150.836 37.4375 150.836 36.7614C150.836 36.0795 150.96 35.4844 151.207 34.9759C151.457 34.4673 151.804 34.0724 152.247 33.7912C152.693 33.5099 153.211 33.3693 153.802 33.3693C154.393 33.3693 154.91 33.5099 155.353 33.7912C155.799 34.0724 156.146 34.4673 156.393 34.9759C156.643 35.4844 156.768 36.0795 156.768 36.7614C156.768 37.4375 156.643 38.0284 156.393 38.5341C156.146 39.0398 155.799 39.4332 155.353 39.7145C154.91 39.9957 154.393 40.1364 153.802 40.1364ZM153.802 39.233C154.251 39.233 154.62 39.1179 154.91 38.8878C155.2 38.6577 155.414 38.3551 155.554 37.9801C155.693 37.6051 155.762 37.1989 155.762 36.7614C155.762 36.3239 155.693 35.9162 155.554 35.5384C155.414 35.1605 155.2 34.8551 154.91 34.6222C154.62 34.3892 154.251 34.2727 153.802 34.2727C153.353 34.2727 152.984 34.3892 152.694 34.6222C152.404 34.8551 152.19 35.1605 152.051 35.5384C151.912 35.9162 151.842 36.3239 151.842 36.7614C151.842 37.1989 151.912 37.6051 152.051 37.9801C152.19 38.3551 152.404 38.6577 152.694 38.8878C152.984 39.1179 153.353 39.233 153.802 39.233ZM159.309 36.0625V40H158.303V33.4545H159.275V34.4773H159.36C159.513 34.1449 159.746 33.8778 160.059 33.6761C160.371 33.4716 160.775 33.3693 161.269 33.3693C161.712 33.3693 162.1 33.4602 162.433 33.642C162.765 33.821 163.023 34.0938 163.208 34.4602C163.393 34.8239 163.485 35.2841 163.485 35.8409V40H162.479V35.9091C162.479 35.3949 162.346 34.9943 162.079 34.7074C161.812 34.4176 161.445 34.2727 160.979 34.2727C160.658 34.2727 160.371 34.3423 160.119 34.4815C159.869 34.6207 159.671 34.8239 159.526 35.0909C159.381 35.358 159.309 35.6818 159.309 36.0625ZM167.249 40.1534C166.834 40.1534 166.458 40.0753 166.12 39.919C165.782 39.7599 165.513 39.5312 165.314 39.233C165.115 38.9318 165.016 38.5682 165.016 38.142C165.016 37.767 165.09 37.4631 165.238 37.2301C165.385 36.9943 165.583 36.8097 165.83 36.6761C166.077 36.5426 166.35 36.4432 166.648 36.3778C166.949 36.3097 167.252 36.2557 167.556 36.2159C167.953 36.1648 168.276 36.1264 168.523 36.1009C168.773 36.0724 168.955 36.0256 169.069 35.9602C169.185 35.8949 169.243 35.7812 169.243 35.6193V35.5852C169.243 35.1648 169.128 34.8381 168.898 34.6051C168.671 34.3722 168.326 34.2557 167.863 34.2557C167.382 34.2557 167.006 34.3608 166.733 34.571C166.461 34.7812 166.269 35.0057 166.158 35.2443L165.203 34.9034C165.374 34.5057 165.601 34.196 165.885 33.9744C166.172 33.75 166.485 33.5937 166.823 33.5057C167.164 33.4148 167.499 33.3693 167.828 33.3693C168.039 33.3693 168.28 33.3949 168.553 33.446C168.828 33.4943 169.094 33.5952 169.35 33.7486C169.608 33.902 169.823 34.1335 169.993 34.4432C170.164 34.7528 170.249 35.1676 170.249 35.6875V40H169.243V39.1136H169.192C169.124 39.2557 169.01 39.4077 168.851 39.5696C168.692 39.7315 168.48 39.8693 168.216 39.983C167.952 40.0966 167.63 40.1534 167.249 40.1534ZM167.402 39.25C167.8 39.25 168.135 39.1719 168.408 39.0156C168.684 38.8594 168.891 38.6577 169.03 38.4105C169.172 38.1634 169.243 37.9034 169.243 37.6307V36.7102C169.201 36.7614 169.107 36.8082 168.962 36.8509C168.82 36.8906 168.655 36.9261 168.468 36.9574C168.283 36.9858 168.103 37.0114 167.926 37.0341C167.753 37.054 167.613 37.071 167.505 37.0852C167.243 37.1193 166.999 37.1747 166.772 37.2514C166.547 37.3253 166.365 37.4375 166.226 37.5881C166.09 37.7358 166.022 37.9375 166.022 38.1932C166.022 38.5426 166.151 38.8068 166.409 38.9858C166.671 39.1619 167.002 39.25 167.402 39.25ZM173.09 31.2727V40H172.085V31.2727H173.09Z" fill="#737373"/>
</svg>
