<svg width="233" height="56" viewBox="0 0 233 56" fill="none" xmlns="http://www.w3.org/2000/svg">
<path d="M1.51705 25V7.54545H8.40341C9.72727 7.54545 10.8551 7.7983 11.7869 8.30398C12.7188 8.80398 13.429 9.5 13.9176 10.392C14.4119 11.2784 14.6591 12.3011 14.6591 13.4602C14.6591 14.6193 14.4091 15.642 13.9091 16.5284C13.4091 17.4148 12.6847 18.1051 11.7358 18.5994C10.7926 19.0937 9.65057 19.3409 8.30966 19.3409H3.92045V16.3835H7.71307C8.4233 16.3835 9.00852 16.2614 9.46875 16.017C9.93466 15.767 10.2813 15.4233 10.5085 14.9858C10.7415 14.5426 10.858 14.0341 10.858 13.4602C10.858 12.8807 10.7415 12.375 10.5085 11.9432C10.2813 11.5057 9.93466 11.1676 9.46875 10.929C9.00284 10.6847 8.41193 10.5625 7.69602 10.5625H5.20739V25H1.51705ZM20.3693 25.2472C19.5341 25.2472 18.7898 25.1023 18.1364 24.8125C17.483 24.517 16.9659 24.0824 16.5852 23.5085C16.2102 22.929 16.0227 22.2074 16.0227 21.3438C16.0227 20.6165 16.1563 20.0057 16.4233 19.5114C16.6903 19.017 17.054 18.6193 17.5142 18.3182C17.9744 18.017 18.4972 17.7898 19.0824 17.6364C19.6733 17.483 20.2926 17.375 20.9403 17.3125C21.7017 17.233 22.3153 17.1591 22.7812 17.0909C23.2472 17.017 23.5852 16.9091 23.7955 16.767C24.0057 16.625 24.1108 16.4148 24.1108 16.1364V16.0852C24.1108 15.5455 23.9403 15.1278 23.5994 14.8324C23.2642 14.5369 22.7869 14.3892 22.1676 14.3892C21.5142 14.3892 20.9943 14.5341 20.608 14.8239C20.2216 15.108 19.9659 15.4659 19.8409 15.8977L16.483 15.625C16.6534 14.8295 16.9886 14.142 17.4886 13.5625C17.9886 12.9773 18.6335 12.5284 19.4233 12.2159C20.2188 11.8977 21.1392 11.7386 22.1847 11.7386C22.9119 11.7386 23.608 11.8239 24.2727 11.9943C24.9432 12.1648 25.5369 12.429 26.054 12.7869C26.5767 13.1449 26.9886 13.6051 27.2898 14.1676C27.5909 14.7244 27.7415 15.392 27.7415 16.1705V25H24.2983V23.1847H24.196C23.9858 23.5938 23.7045 23.9545 23.3523 24.267C23 24.5739 22.5767 24.8153 22.0824 24.9915C21.5881 25.1619 21.017 25.2472 20.3693 25.2472ZM21.4091 22.7415C21.9432 22.7415 22.4148 22.6364 22.8239 22.4261C23.233 22.2102 23.554 21.9205 23.7869 21.5568C24.0199 21.1932 24.1364 20.7812 24.1364 20.321V18.9318C24.0227 19.0057 23.8665 19.0739 23.6676 19.1364C23.4744 19.1932 23.2557 19.2472 23.0114 19.2983C22.767 19.3437 22.5227 19.3864 22.2784 19.4261C22.0341 19.4602 21.8125 19.4915 21.6136 19.5199C21.1875 19.5824 20.8153 19.6818 20.4972 19.8182C20.179 19.9545 19.9318 20.1392 19.7557 20.3722C19.5795 20.5994 19.4915 20.8835 19.4915 21.2244C19.4915 21.7188 19.6705 22.0966 20.0284 22.358C20.392 22.6136 20.8523 22.7415 21.4091 22.7415ZM34.1889 17.4318V25H30.5582V11.9091H34.0185V14.2188H34.1719C34.4616 13.4574 34.9474 12.8551 35.6293 12.4119C36.3111 11.9631 37.1378 11.7386 38.1094 11.7386C39.0185 11.7386 39.8111 11.9375 40.4872 12.3352C41.1634 12.733 41.6889 13.3011 42.0639 14.0398C42.4389 14.7727 42.6264 15.6477 42.6264 16.6648V25H38.9957V17.3125C39.0014 16.5114 38.7969 15.8864 38.3821 15.4375C37.9673 14.983 37.3963 14.7557 36.669 14.7557C36.1804 14.7557 35.7486 14.8608 35.3736 15.071C35.0043 15.2812 34.7145 15.5881 34.5043 15.9915C34.2997 16.3892 34.1946 16.8693 34.1889 17.4318ZM51.4538 25.2557C50.1072 25.2557 48.9482 24.983 47.9766 24.4375C47.0107 23.8864 46.2663 23.108 45.7436 22.1023C45.2209 21.0909 44.9595 19.8949 44.9595 18.5142C44.9595 17.1676 45.2209 15.9858 45.7436 14.9688C46.2663 13.9517 47.0021 13.1591 47.951 12.5909C48.9055 12.0227 50.0249 11.7386 51.3089 11.7386C52.1726 11.7386 52.9766 11.8778 53.7209 12.1562C54.4709 12.429 55.1243 12.8409 55.6811 13.392C56.2436 13.9432 56.6811 14.6364 56.9936 15.4716C57.3061 16.3011 57.4624 17.2727 57.4624 18.3864V19.3835H46.4084V17.1335H54.0447C54.0447 16.6108 53.9311 16.1477 53.7038 15.7443C53.4766 15.3409 53.1612 15.0256 52.7578 14.7983C52.3601 14.5653 51.897 14.4489 51.3686 14.4489C50.8175 14.4489 50.3288 14.5767 49.9027 14.8324C49.4822 15.0824 49.1527 15.4205 48.9141 15.8466C48.6754 16.267 48.5533 16.7358 48.5476 17.2528V19.392C48.5476 20.0398 48.6669 20.5994 48.9055 21.071C49.1499 21.5426 49.4936 21.9062 49.9368 22.1619C50.38 22.4176 50.9055 22.5455 51.5135 22.5455C51.9169 22.5455 52.2862 22.4886 52.6214 22.375C52.9567 22.2614 53.2436 22.0909 53.4822 21.8636C53.7209 21.6364 53.9027 21.358 54.0277 21.0284L57.3857 21.25C57.2152 22.0568 56.8658 22.7614 56.3374 23.3636C55.8146 23.9602 55.1385 24.4261 54.3089 24.7614C53.4851 25.0909 52.5334 25.2557 51.4538 25.2557ZM63.4624 7.54545V25H59.8317V7.54545H63.4624ZM71.9936 25V7.54545H78.88C80.2038 7.54545 81.3317 7.7983 82.2635 8.30398C83.1953 8.80398 83.9055 9.5 84.3942 10.392C84.8885 11.2784 85.1357 12.3011 85.1357 13.4602C85.1357 14.6193 84.8857 15.642 84.3857 16.5284C83.8857 17.4148 83.1612 18.1051 82.2124 18.5994C81.2692 19.0937 80.1271 19.3409 78.7862 19.3409H74.397V16.3835H78.1896C78.8999 16.3835 79.4851 16.2614 79.9453 16.017C80.4112 15.767 80.7578 15.4233 80.9851 14.9858C81.218 14.5426 81.3345 14.0341 81.3345 13.4602C81.3345 12.8807 81.218 12.375 80.9851 11.9432C80.7578 11.5057 80.4112 11.1676 79.9453 10.929C79.4794 10.6847 78.8885 10.5625 78.1726 10.5625H75.6839V25H71.9936ZM87.4645 25V11.9091H90.9844V14.1932H91.1207C91.3594 13.3807 91.7599 12.767 92.3224 12.3523C92.8849 11.9318 93.5327 11.7216 94.2656 11.7216C94.4474 11.7216 94.6435 11.733 94.8537 11.7557C95.0639 11.7784 95.2486 11.8097 95.4077 11.8494V15.071C95.2372 15.0199 95.0014 14.9744 94.7003 14.9347C94.3991 14.8949 94.1236 14.875 93.8736 14.875C93.3395 14.875 92.8622 14.9915 92.4418 15.2244C92.027 15.4517 91.6974 15.7699 91.4531 16.179C91.2145 16.5881 91.0952 17.0597 91.0952 17.5938V25H87.4645ZM102.59 25.2557C101.266 25.2557 100.121 24.9744 99.1555 24.4119C98.1953 23.8437 97.4538 23.054 96.9311 22.0426C96.4084 21.0256 96.147 19.8466 96.147 18.5057C96.147 17.1534 96.4084 15.9716 96.9311 14.9602C97.4538 13.9432 98.1953 13.1534 99.1555 12.5909C100.121 12.0227 101.266 11.7386 102.59 11.7386C103.914 11.7386 105.056 12.0227 106.016 12.5909C106.982 13.1534 107.727 13.9432 108.249 14.9602C108.772 15.9716 109.033 17.1534 109.033 18.5057C109.033 19.8466 108.772 21.0256 108.249 22.0426C107.727 23.054 106.982 23.8437 106.016 24.4119C105.056 24.9744 103.914 25.2557 102.59 25.2557ZM102.607 22.4432C103.21 22.4432 103.712 22.2727 104.116 21.9318C104.519 21.5852 104.823 21.1136 105.028 20.517C105.238 19.9205 105.343 19.2415 105.343 18.4801C105.343 17.7188 105.238 17.0398 105.028 16.4432C104.823 15.8466 104.519 15.375 104.116 15.0284C103.712 14.6818 103.21 14.5085 102.607 14.5085C101.999 14.5085 101.488 14.6818 101.073 15.0284C100.664 15.375 100.354 15.8466 100.144 16.4432C99.9396 17.0398 99.8374 17.7188 99.8374 18.4801C99.8374 19.2415 99.9396 19.9205 100.144 20.517C100.354 21.1136 100.664 21.5852 101.073 21.9318C101.488 22.2727 101.999 22.4432 102.607 22.4432Z" fill="white"/>
<path d="M1.40909 50V38.3636H2.75V42.6591H2.86364C2.96212 42.5076 3.09848 42.3144 3.27273 42.0795C3.45076 41.8409 3.70455 41.6288 4.03409 41.4432C4.36742 41.2538 4.81818 41.1591 5.38636 41.1591C6.12121 41.1591 6.76894 41.3428 7.32955 41.7102C7.89015 42.0777 8.32765 42.5985 8.64205 43.2727C8.95644 43.947 9.11364 44.7424 9.11364 45.6591C9.11364 46.5833 8.95644 47.3845 8.64205 48.0625C8.32765 48.7367 7.89205 49.2595 7.33523 49.6307C6.77841 49.9981 6.13636 50.1818 5.40909 50.1818C4.84848 50.1818 4.39962 50.089 4.0625 49.9034C3.72538 49.714 3.46591 49.5 3.28409 49.2614C3.10227 49.0189 2.96212 48.8182 2.86364 48.6591H2.70455V50H1.40909ZM2.72727 45.6364C2.72727 46.2955 2.82386 46.8769 3.01705 47.3807C3.21023 47.8807 3.49242 48.2727 3.86364 48.5568C4.23485 48.8371 4.68939 48.9773 5.22727 48.9773C5.78788 48.9773 6.25568 48.8295 6.63068 48.5341C7.00947 48.2348 7.29356 47.8333 7.48295 47.3295C7.67614 46.822 7.77273 46.2576 7.77273 45.6364C7.77273 45.0227 7.67803 44.4697 7.48864 43.9773C7.30303 43.4811 7.02083 43.089 6.64205 42.8011C6.26705 42.5095 5.79545 42.3636 5.22727 42.3636C4.68182 42.3636 4.22348 42.5019 3.85227 42.7784C3.48106 43.0511 3.20076 43.4337 3.01136 43.9261C2.82197 44.4148 2.72727 44.9848 2.72727 45.6364ZM11.7159 53.2727C11.4886 53.2727 11.286 53.2538 11.108 53.2159C10.9299 53.1818 10.8068 53.1477 10.7386 53.1136L11.0795 51.9318C11.4053 52.0152 11.6932 52.0455 11.9432 52.0227C12.1932 52 12.4148 51.8883 12.608 51.6875C12.8049 51.4905 12.9848 51.1705 13.1477 50.7273L13.3977 50.0455L10.1705 41.2727H11.625L14.0341 48.2273H14.125L16.5341 41.2727H17.9886L14.2841 51.2727C14.1174 51.7235 13.911 52.0966 13.6648 52.392C13.4186 52.6913 13.1326 52.9129 12.8068 53.0568C12.4848 53.2008 12.1212 53.2727 11.7159 53.2727ZM32.0767 38.3636H33.4858V46.0682C33.4858 46.8636 33.2983 47.5739 32.9233 48.1989C32.5521 48.8201 32.0275 49.3106 31.3494 49.6705C30.6714 50.0265 29.8759 50.2045 28.9631 50.2045C28.0502 50.2045 27.2547 50.0265 26.5767 49.6705C25.8987 49.3106 25.3722 48.8201 24.9972 48.1989C24.6259 47.5739 24.4403 46.8636 24.4403 46.0682V38.3636H25.8494V45.9545C25.8494 46.5227 25.9744 47.0284 26.2244 47.4716C26.4744 47.911 26.8305 48.2576 27.2926 48.5114C27.7585 48.7614 28.3153 48.8864 28.9631 48.8864C29.6108 48.8864 30.1676 48.7614 30.6335 48.5114C31.0994 48.2576 31.4555 47.911 31.7017 47.4716C31.9517 47.0284 32.0767 46.5227 32.0767 45.9545V38.3636ZM42.2997 43.2273L41.0952 43.5682C41.0194 43.3674 40.9077 43.1723 40.7599 42.983C40.616 42.7898 40.419 42.6307 40.169 42.5057C39.919 42.3807 39.599 42.3182 39.2088 42.3182C38.6747 42.3182 38.2296 42.4413 37.8736 42.6875C37.5213 42.9299 37.3452 43.2386 37.3452 43.6136C37.3452 43.947 37.4664 44.2102 37.7088 44.4034C37.9512 44.5966 38.33 44.7576 38.8452 44.8864L40.1406 45.2045C40.9209 45.3939 41.5024 45.6837 41.8849 46.0739C42.2675 46.4602 42.4588 46.9583 42.4588 47.5682C42.4588 48.0682 42.3149 48.5152 42.027 48.9091C41.7429 49.303 41.3452 49.6136 40.8338 49.8409C40.3224 50.0682 39.7277 50.1818 39.0497 50.1818C38.1596 50.1818 37.4228 49.9886 36.8395 49.6023C36.2562 49.2159 35.8868 48.6515 35.7315 47.9091L37.0043 47.5909C37.1255 48.0606 37.3546 48.4129 37.6918 48.6477C38.0327 48.8826 38.4777 49 39.027 49C39.652 49 40.1482 48.8674 40.5156 48.6023C40.8868 48.3333 41.0724 48.0114 41.0724 47.6364C41.0724 47.3333 40.9664 47.0795 40.7543 46.875C40.5421 46.6667 40.2164 46.5114 39.777 46.4091L38.3224 46.0682C37.5232 45.8788 36.9361 45.5852 36.5611 45.1875C36.1899 44.786 36.0043 44.2841 36.0043 43.6818C36.0043 43.1894 36.1425 42.7538 36.419 42.375C36.6993 41.9962 37.08 41.6989 37.5611 41.483C38.0459 41.267 38.5952 41.1591 39.2088 41.1591C40.0724 41.1591 40.7505 41.3485 41.2429 41.7273C41.7391 42.1061 42.0914 42.6061 42.2997 43.2273ZM48.1364 50.1818C47.2955 50.1818 46.5701 49.9962 45.9602 49.625C45.3542 49.25 44.8864 48.7273 44.5568 48.0568C44.2311 47.3826 44.0682 46.5985 44.0682 45.7045C44.0682 44.8106 44.2311 44.0227 44.5568 43.3409C44.8864 42.6553 45.3447 42.1212 45.9318 41.7386C46.5227 41.3523 47.2121 41.1591 48 41.1591C48.4545 41.1591 48.9034 41.2348 49.3466 41.3864C49.7898 41.5379 50.1932 41.7841 50.5568 42.125C50.9205 42.4621 51.2102 42.9091 51.4261 43.4659C51.642 44.0227 51.75 44.7083 51.75 45.5227V46.0909H45.0227V44.9318H50.3864C50.3864 44.4394 50.2879 44 50.0909 43.6136C49.8977 43.2273 49.6212 42.9223 49.2614 42.6989C48.9053 42.4754 48.4848 42.3636 48 42.3636C47.4659 42.3636 47.0038 42.4962 46.6136 42.7614C46.2273 43.0227 45.9299 43.3636 45.7216 43.7841C45.5133 44.2045 45.4091 44.6553 45.4091 45.1364V45.9091C45.4091 46.5682 45.5227 47.1269 45.75 47.5852C45.9811 48.0398 46.3011 48.3864 46.7102 48.625C47.1193 48.8598 47.5947 48.9773 48.1364 48.9773C48.4886 48.9773 48.8068 48.928 49.0909 48.8295C49.3788 48.7273 49.6269 48.5758 49.8352 48.375C50.0436 48.1705 50.2045 47.9167 50.3182 47.6136L51.6136 47.9773C51.4773 48.4167 51.2481 48.803 50.9261 49.1364C50.6042 49.4659 50.2064 49.7235 49.733 49.9091C49.2595 50.0909 48.7273 50.1818 48.1364 50.1818ZM53.7898 50V41.2727H55.0852V42.5909H55.1761C55.3352 42.1591 55.6231 41.8087 56.0398 41.5398C56.4564 41.2708 56.9261 41.1364 57.4489 41.1364C57.5473 41.1364 57.6705 41.1383 57.8182 41.142C57.9659 41.1458 58.0777 41.1515 58.1534 41.1591V42.5227C58.108 42.5114 58.0038 42.4943 57.8409 42.4716C57.6818 42.4451 57.5133 42.4318 57.3352 42.4318C56.911 42.4318 56.5322 42.5208 56.1989 42.6989C55.8693 42.8731 55.608 43.1155 55.4148 43.4261C55.2254 43.733 55.1307 44.0833 55.1307 44.4773V50H53.7898ZM64.4247 50V38.3636H68.3565C69.2656 38.3636 70.0118 38.5189 70.5952 38.8295C71.1785 39.1364 71.6103 39.5587 71.8906 40.0966C72.1709 40.6345 72.3111 41.2462 72.3111 41.9318C72.3111 42.6174 72.1709 43.2254 71.8906 43.7557C71.6103 44.286 71.1804 44.7027 70.6009 45.0057C70.0213 45.3049 69.2808 45.4545 68.3793 45.4545H65.1974V44.1818H68.3338C68.955 44.1818 69.455 44.0909 69.8338 43.9091C70.2164 43.7273 70.4929 43.4697 70.6634 43.1364C70.8376 42.7992 70.9247 42.3977 70.9247 41.9318C70.9247 41.4659 70.8376 41.0587 70.6634 40.7102C70.4891 40.3617 70.2107 40.0928 69.8281 39.9034C69.4455 39.7102 68.9399 39.6136 68.3111 39.6136H65.8338V50H64.4247ZM69.902 44.7727L72.7656 50H71.1293L68.3111 44.7727H69.902ZM78.0426 50.1818C77.2017 50.1818 76.4763 49.9962 75.8665 49.625C75.2604 49.25 74.7926 48.7273 74.4631 48.0568C74.1373 47.3826 73.9744 46.5985 73.9744 45.7045C73.9744 44.8106 74.1373 44.0227 74.4631 43.3409C74.7926 42.6553 75.2509 42.1212 75.8381 41.7386C76.429 41.3523 77.1184 41.1591 77.9062 41.1591C78.3608 41.1591 78.8097 41.2348 79.2528 41.3864C79.696 41.5379 80.0994 41.7841 80.4631 42.125C80.8267 42.4621 81.1165 42.9091 81.3324 43.4659C81.5483 44.0227 81.6562 44.7083 81.6562 45.5227V46.0909H74.929V44.9318H80.2926C80.2926 44.4394 80.1941 44 79.9972 43.6136C79.804 43.2273 79.5275 42.9223 79.1676 42.6989C78.8116 42.4754 78.3911 42.3636 77.9062 42.3636C77.3722 42.3636 76.91 42.4962 76.5199 42.7614C76.1335 43.0227 75.8362 43.3636 75.6278 43.7841C75.4195 44.2045 75.3153 44.6553 75.3153 45.1364V45.9091C75.3153 46.5682 75.429 47.1269 75.6562 47.5852C75.8873 48.0398 76.2074 48.3864 76.6165 48.625C77.0256 48.8598 77.5009 48.9773 78.0426 48.9773C78.3949 48.9773 78.7131 48.928 78.9972 48.8295C79.285 48.7273 79.5331 48.5758 79.7415 48.375C79.9498 48.1705 80.1108 47.9167 80.2244 47.6136L81.5199 47.9773C81.3835 48.4167 81.1544 48.803 80.8324 49.1364C80.5104 49.4659 80.1127 49.7235 79.6392 49.9091C79.1657 50.0909 78.6335 50.1818 78.0426 50.1818ZM89.8778 43.2273L88.6733 43.5682C88.5975 43.3674 88.4858 43.1723 88.3381 42.983C88.1941 42.7898 87.9972 42.6307 87.7472 42.5057C87.4972 42.3807 87.1771 42.3182 86.7869 42.3182C86.2528 42.3182 85.8078 42.4413 85.4517 42.6875C85.0994 42.9299 84.9233 43.2386 84.9233 43.6136C84.9233 43.947 85.0445 44.2102 85.2869 44.4034C85.5294 44.5966 85.9081 44.7576 86.4233 44.8864L87.7188 45.2045C88.4991 45.3939 89.0805 45.6837 89.4631 46.0739C89.8456 46.4602 90.0369 46.9583 90.0369 47.5682C90.0369 48.0682 89.893 48.5152 89.6051 48.9091C89.321 49.303 88.9233 49.6136 88.4119 49.8409C87.9006 50.0682 87.3059 50.1818 86.6278 50.1818C85.7377 50.1818 85.0009 49.9886 84.4176 49.6023C83.8343 49.2159 83.465 48.6515 83.3097 47.9091L84.5824 47.5909C84.7036 48.0606 84.9328 48.4129 85.2699 48.6477C85.6108 48.8826 86.0559 49 86.6051 49C87.2301 49 87.7263 48.8674 88.0938 48.6023C88.465 48.3333 88.6506 48.0114 88.6506 47.6364C88.6506 47.3333 88.5445 47.0795 88.3324 46.875C88.1203 46.6667 87.7945 46.5114 87.3551 46.4091L85.9006 46.0682C85.1013 45.8788 84.5142 45.5852 84.1392 45.1875C83.768 44.786 83.5824 44.2841 83.5824 43.6818C83.5824 43.1894 83.7206 42.7538 83.9972 42.375C84.2775 41.9962 84.6581 41.6989 85.1392 41.483C85.6241 41.267 86.1733 41.1591 86.7869 41.1591C87.6506 41.1591 88.3286 41.3485 88.821 41.7273C89.3172 42.1061 89.6695 42.6061 89.8778 43.2273ZM95.7145 50.1818C94.8736 50.1818 94.1482 49.9962 93.5384 49.625C92.9323 49.25 92.4645 48.7273 92.1349 48.0568C91.8092 47.3826 91.6463 46.5985 91.6463 45.7045C91.6463 44.8106 91.8092 44.0227 92.1349 43.3409C92.4645 42.6553 92.9228 42.1212 93.5099 41.7386C94.1009 41.3523 94.7902 41.1591 95.5781 41.1591C96.0327 41.1591 96.4815 41.2348 96.9247 41.3864C97.3679 41.5379 97.7713 41.7841 98.1349 42.125C98.4986 42.4621 98.7884 42.9091 99.0043 43.4659C99.2202 44.0227 99.3281 44.7083 99.3281 45.5227V46.0909H92.6009V44.9318H97.9645C97.9645 44.4394 97.866 44 97.669 43.6136C97.4759 43.2273 97.1993 42.9223 96.8395 42.6989C96.4834 42.4754 96.063 42.3636 95.5781 42.3636C95.044 42.3636 94.5819 42.4962 94.1918 42.7614C93.8054 43.0227 93.508 43.3636 93.2997 43.7841C93.0914 44.2045 92.9872 44.6553 92.9872 45.1364V45.9091C92.9872 46.5682 93.1009 47.1269 93.3281 47.5852C93.5592 48.0398 93.8793 48.3864 94.2884 48.625C94.6974 48.8598 95.1728 48.9773 95.7145 48.9773C96.0668 48.9773 96.3849 48.928 96.669 48.8295C96.9569 48.7273 97.205 48.5758 97.4134 48.375C97.6217 48.1705 97.7827 47.9167 97.8963 47.6136L99.1918 47.9773C99.0554 48.4167 98.8262 48.803 98.5043 49.1364C98.1823 49.4659 97.7846 49.7235 97.3111 49.9091C96.8376 50.0909 96.3054 50.1818 95.7145 50.1818ZM103.936 50.2045C103.383 50.2045 102.881 50.1004 102.43 49.892C101.98 49.6799 101.622 49.375 101.357 48.9773C101.091 48.5758 100.959 48.0909 100.959 47.5227C100.959 47.0227 101.057 46.6174 101.254 46.3068C101.451 45.9924 101.714 45.7462 102.044 45.5682C102.374 45.3902 102.737 45.2576 103.135 45.1705C103.536 45.0795 103.94 45.0076 104.345 44.9545C104.875 44.8864 105.305 44.8352 105.635 44.8011C105.968 44.7633 106.211 44.7008 106.362 44.6136C106.518 44.5265 106.595 44.375 106.595 44.1591V44.1136C106.595 43.553 106.442 43.1174 106.135 42.8068C105.832 42.4962 105.372 42.3409 104.754 42.3409C104.114 42.3409 103.612 42.4811 103.249 42.7614C102.885 43.0417 102.629 43.3409 102.482 43.6591L101.209 43.2045C101.436 42.6742 101.739 42.2614 102.118 41.9659C102.5 41.6667 102.917 41.4583 103.368 41.3409C103.822 41.2197 104.269 41.1591 104.709 41.1591C104.989 41.1591 105.311 41.1932 105.675 41.2614C106.042 41.3258 106.396 41.4602 106.737 41.6648C107.082 41.8693 107.368 42.178 107.595 42.5909C107.822 43.0038 107.936 43.5568 107.936 44.25V50H106.595V48.8182H106.527C106.436 49.0076 106.285 49.2102 106.072 49.4261C105.86 49.642 105.578 49.8258 105.226 49.9773C104.874 50.1288 104.444 50.2045 103.936 50.2045ZM104.141 49C104.671 49 105.118 48.8958 105.482 48.6875C105.849 48.4792 106.125 48.2102 106.311 47.8807C106.5 47.5511 106.595 47.2045 106.595 46.8409V45.6136C106.538 45.6818 106.413 45.7443 106.22 45.8011C106.031 45.8542 105.811 45.9015 105.561 45.9432C105.315 45.9811 105.074 46.0152 104.839 46.0455C104.608 46.072 104.421 46.0947 104.277 46.1136C103.929 46.1591 103.603 46.233 103.3 46.3352C103 46.4337 102.758 46.5833 102.572 46.7841C102.391 46.9811 102.3 47.25 102.3 47.5909C102.3 48.0568 102.472 48.4091 102.817 48.6477C103.165 48.8826 103.607 49 104.141 49ZM110.384 50V41.2727H111.679V42.5909H111.77C111.929 42.1591 112.217 41.8087 112.634 41.5398C113.05 41.2708 113.52 41.1364 114.043 41.1364C114.141 41.1364 114.264 41.1383 114.412 41.142C114.56 41.1458 114.671 41.1515 114.747 41.1591V42.5227C114.702 42.5114 114.598 42.4943 114.435 42.4716C114.276 42.4451 114.107 42.4318 113.929 42.4318C113.505 42.4318 113.126 42.5208 112.793 42.6989C112.463 42.8731 112.202 43.1155 112.009 43.4261C111.819 43.733 111.724 44.0833 111.724 44.4773V50H110.384ZM119.616 50.1818C118.798 50.1818 118.094 49.9886 117.503 49.6023C116.912 49.2159 116.457 48.6837 116.139 48.0057C115.821 47.3277 115.662 46.553 115.662 45.6818C115.662 44.7955 115.825 44.0133 116.151 43.3352C116.48 42.6534 116.938 42.1212 117.526 41.7386C118.116 41.3523 118.806 41.1591 119.594 41.1591C120.207 41.1591 120.76 41.2727 121.253 41.5C121.745 41.7273 122.149 42.0455 122.463 42.4545C122.777 42.8636 122.973 43.3409 123.048 43.8864H121.707C121.605 43.4886 121.378 43.1364 121.026 42.8295C120.677 42.5189 120.207 42.3636 119.616 42.3636C119.094 42.3636 118.635 42.5 118.241 42.7727C117.851 43.0417 117.546 43.4223 117.327 43.9148C117.111 44.4034 117.003 44.9773 117.003 45.6364C117.003 46.3106 117.109 46.8977 117.321 47.3977C117.537 47.8977 117.84 48.286 118.23 48.5625C118.624 48.839 119.086 48.9773 119.616 48.9773C119.965 48.9773 120.281 48.9167 120.565 48.7955C120.849 48.6742 121.09 48.5 121.287 48.2727C121.484 48.0455 121.624 47.7727 121.707 47.4545H123.048C122.973 47.9697 122.785 48.4337 122.486 48.8466C122.19 49.2557 121.798 49.5814 121.31 49.8239C120.825 50.0625 120.26 50.1818 119.616 50.1818ZM126.349 44.75V50H125.009V38.3636H126.349V42.6364H126.463C126.668 42.1856 126.974 41.8277 127.384 41.5625C127.796 41.2936 128.346 41.1591 129.031 41.1591C129.626 41.1591 130.147 41.2784 130.594 41.517C131.041 41.7519 131.387 42.1136 131.634 42.6023C131.884 43.0871 132.009 43.7045 132.009 44.4545V50H130.668V44.5455C130.668 43.8523 130.488 43.3163 130.128 42.9375C129.772 42.5549 129.277 42.3636 128.645 42.3636C128.205 42.3636 127.812 42.4564 127.463 42.642C127.118 42.8277 126.846 43.0985 126.645 43.4545C126.448 43.8106 126.349 44.2424 126.349 44.75ZM140.553 38.3636V50H139.143V38.3636H140.553ZM144.537 44.75V50H143.196V41.2727H144.491V42.6364H144.605C144.81 42.1932 145.12 41.8371 145.537 41.5682C145.954 41.2955 146.491 41.1591 147.151 41.1591C147.741 41.1591 148.259 41.2803 148.702 41.5227C149.145 41.7614 149.49 42.125 149.736 42.6136C149.982 43.0985 150.105 43.7121 150.105 44.4545V50H148.764V44.5455C148.764 43.8598 148.586 43.3258 148.23 42.9432C147.874 42.5568 147.385 42.3636 146.764 42.3636C146.336 42.3636 145.954 42.4564 145.616 42.642C145.283 42.8277 145.02 43.0985 144.827 43.4545C144.634 43.8106 144.537 44.2424 144.537 44.75ZM156.351 41.2727V42.4091H151.828V41.2727H156.351ZM153.146 39.1818H154.487V47.5C154.487 47.8788 154.542 48.1629 154.652 48.3523C154.766 48.5379 154.91 48.6629 155.084 48.7273C155.262 48.7879 155.449 48.8182 155.646 48.8182C155.794 48.8182 155.915 48.8106 156.01 48.7955C156.105 48.7765 156.18 48.7614 156.237 48.75L156.51 49.9545C156.419 49.9886 156.292 50.0227 156.129 50.0568C155.966 50.0947 155.76 50.1136 155.51 50.1136C155.131 50.1136 154.76 50.0322 154.396 49.8693C154.036 49.7064 153.737 49.4583 153.499 49.125C153.264 48.7917 153.146 48.3712 153.146 47.8636V39.1818ZM161.933 50.1818C161.092 50.1818 160.367 49.9962 159.757 49.625C159.151 49.25 158.683 48.7273 158.354 48.0568C158.028 47.3826 157.865 46.5985 157.865 45.7045C157.865 44.8106 158.028 44.0227 158.354 43.3409C158.683 42.6553 159.142 42.1212 159.729 41.7386C160.32 41.3523 161.009 41.1591 161.797 41.1591C162.251 41.1591 162.7 41.2348 163.143 41.3864C163.587 41.5379 163.99 41.7841 164.354 42.125C164.717 42.4621 165.007 42.9091 165.223 43.4659C165.439 44.0227 165.547 44.7083 165.547 45.5227V46.0909H158.82V44.9318H164.183C164.183 44.4394 164.085 44 163.888 43.6136C163.695 43.2273 163.418 42.9223 163.058 42.6989C162.702 42.4754 162.282 42.3636 161.797 42.3636C161.263 42.3636 160.801 42.4962 160.411 42.7614C160.024 43.0227 159.727 43.3636 159.518 43.7841C159.31 44.2045 159.206 44.6553 159.206 45.1364V45.9091C159.206 46.5682 159.32 47.1269 159.547 47.5852C159.778 48.0398 160.098 48.3864 160.507 48.625C160.916 48.8598 161.392 48.9773 161.933 48.9773C162.286 48.9773 162.604 48.928 162.888 48.8295C163.176 48.7273 163.424 48.5758 163.632 48.375C163.84 48.1705 164.001 47.9167 164.115 47.6136L165.411 47.9773C165.274 48.4167 165.045 48.803 164.723 49.1364C164.401 49.4659 164.003 49.7235 163.53 49.9091C163.056 50.0909 162.524 50.1818 161.933 50.1818ZM167.587 50V41.2727H168.882V42.5909H168.973C169.132 42.1591 169.42 41.8087 169.837 41.5398C170.253 41.2708 170.723 41.1364 171.246 41.1364C171.344 41.1364 171.467 41.1383 171.615 41.142C171.763 41.1458 171.875 41.1515 171.95 41.1591V42.5227C171.905 42.5114 171.801 42.4943 171.638 42.4716C171.479 42.4451 171.31 42.4318 171.132 42.4318C170.708 42.4318 170.329 42.5208 169.996 42.6989C169.666 42.8731 169.405 43.1155 169.212 43.4261C169.022 43.733 168.928 44.0833 168.928 44.4773V50H167.587ZM174.881 44.75V50H173.54V41.2727H174.835V42.6364H174.949C175.153 42.1932 175.464 41.8371 175.881 41.5682C176.297 41.2955 176.835 41.1591 177.494 41.1591C178.085 41.1591 178.602 41.2803 179.045 41.5227C179.489 41.7614 179.833 42.125 180.08 42.6136C180.326 43.0985 180.449 43.7121 180.449 44.4545V50H179.108V44.5455C179.108 43.8598 178.93 43.3258 178.574 42.9432C178.218 42.5568 177.729 42.3636 177.108 42.3636C176.68 42.3636 176.297 42.4564 175.96 42.642C175.627 42.8277 175.364 43.0985 175.17 43.4545C174.977 43.8106 174.881 44.2424 174.881 44.75ZM185.467 50.2045C184.914 50.2045 184.412 50.1004 183.962 49.892C183.511 49.6799 183.153 49.375 182.888 48.9773C182.623 48.5758 182.49 48.0909 182.49 47.5227C182.49 47.0227 182.589 46.6174 182.786 46.3068C182.982 45.9924 183.246 45.7462 183.575 45.5682C183.905 45.3902 184.268 45.2576 184.666 45.1705C185.068 45.0795 185.471 45.0076 185.876 44.9545C186.407 44.8864 186.837 44.8352 187.166 44.8011C187.5 44.7633 187.742 44.7008 187.893 44.6136C188.049 44.5265 188.126 44.375 188.126 44.1591V44.1136C188.126 43.553 187.973 43.1174 187.666 42.8068C187.363 42.4962 186.903 42.3409 186.286 42.3409C185.645 42.3409 185.143 42.4811 184.78 42.7614C184.416 43.0417 184.161 43.3409 184.013 43.6591L182.74 43.2045C182.967 42.6742 183.27 42.2614 183.649 41.9659C184.032 41.6667 184.448 41.4583 184.899 41.3409C185.354 41.2197 185.801 41.1591 186.24 41.1591C186.52 41.1591 186.842 41.1932 187.206 41.2614C187.573 41.3258 187.928 41.4602 188.268 41.6648C188.613 41.8693 188.899 42.178 189.126 42.5909C189.354 43.0038 189.467 43.5568 189.467 44.25V50H188.126V48.8182H188.058C187.967 49.0076 187.816 49.2102 187.604 49.4261C187.392 49.642 187.109 49.8258 186.757 49.9773C186.405 50.1288 185.975 50.2045 185.467 50.2045ZM185.672 49C186.202 49 186.649 48.8958 187.013 48.6875C187.38 48.4792 187.657 48.2102 187.842 47.8807C188.032 47.5511 188.126 47.2045 188.126 46.8409V45.6136C188.07 45.6818 187.945 45.7443 187.751 45.8011C187.562 45.8542 187.342 45.9015 187.092 45.9432C186.846 45.9811 186.606 46.0152 186.371 46.0455C186.14 46.072 185.952 46.0947 185.808 46.1136C185.46 46.1591 185.134 46.233 184.831 46.3352C184.532 46.4337 184.289 46.5833 184.104 46.7841C183.922 46.9811 183.831 47.25 183.831 47.5909C183.831 48.0568 184.003 48.4091 184.348 48.6477C184.696 48.8826 185.138 49 185.672 49ZM195.71 41.2727V42.4091H191.188V41.2727H195.71ZM192.506 39.1818H193.847V47.5C193.847 47.8788 193.902 48.1629 194.011 48.3523C194.125 48.5379 194.269 48.6629 194.443 48.7273C194.621 48.7879 194.809 48.8182 195.006 48.8182C195.153 48.8182 195.275 48.8106 195.369 48.7955C195.464 48.7765 195.54 48.7614 195.597 48.75L195.869 49.9545C195.778 49.9886 195.652 50.0227 195.489 50.0568C195.326 50.0947 195.119 50.1136 194.869 50.1136C194.491 50.1136 194.119 50.0322 193.756 49.8693C193.396 49.7064 193.097 49.4583 192.858 49.125C192.623 48.7917 192.506 48.3712 192.506 47.8636V39.1818ZM197.727 50V41.2727H199.068V50H197.727ZM198.409 39.8182C198.148 39.8182 197.922 39.7292 197.733 39.5511C197.547 39.3731 197.455 39.1591 197.455 38.9091C197.455 38.6591 197.547 38.4451 197.733 38.267C197.922 38.089 198.148 38 198.409 38C198.67 38 198.894 38.089 199.08 38.267C199.269 38.4451 199.364 38.6591 199.364 38.9091C199.364 39.1591 199.269 39.3731 199.08 39.5511C198.894 39.7292 198.67 39.8182 198.409 39.8182ZM205.07 50.1818C204.282 50.1818 203.59 49.9943 202.996 49.6193C202.405 49.2443 201.943 48.7197 201.609 48.0455C201.28 47.3712 201.115 46.5833 201.115 45.6818C201.115 44.7727 201.28 43.9792 201.609 43.3011C201.943 42.6231 202.405 42.0966 202.996 41.7216C203.59 41.3466 204.282 41.1591 205.07 41.1591C205.857 41.1591 206.547 41.3466 207.138 41.7216C207.732 42.0966 208.195 42.6231 208.524 43.3011C208.857 43.9792 209.024 44.7727 209.024 45.6818C209.024 46.5833 208.857 47.3712 208.524 48.0455C208.195 48.7197 207.732 49.2443 207.138 49.6193C206.547 49.9943 205.857 50.1818 205.07 50.1818ZM205.07 48.9773C205.668 48.9773 206.161 48.8239 206.547 48.517C206.933 48.2102 207.219 47.8068 207.405 47.3068C207.59 46.8068 207.683 46.2652 207.683 45.6818C207.683 45.0985 207.59 44.5549 207.405 44.0511C207.219 43.5473 206.933 43.1402 206.547 42.8295C206.161 42.5189 205.668 42.3636 205.07 42.3636C204.471 42.3636 203.979 42.5189 203.592 42.8295C203.206 43.1402 202.92 43.5473 202.734 44.0511C202.549 44.5549 202.456 45.0985 202.456 45.6818C202.456 46.2652 202.549 46.8068 202.734 47.3068C202.92 47.8068 203.206 48.2102 203.592 48.517C203.979 48.8239 204.471 48.9773 205.07 48.9773ZM212.412 44.75V50H211.071V41.2727H212.366V42.6364H212.48C212.685 42.1932 212.995 41.8371 213.412 41.5682C213.829 41.2955 214.366 41.1591 215.026 41.1591C215.616 41.1591 216.134 41.2803 216.577 41.5227C217.02 41.7614 217.365 42.125 217.611 42.6136C217.857 43.0985 217.98 43.7121 217.98 44.4545V50H216.639V44.5455C216.639 43.8598 216.461 43.3258 216.105 42.9432C215.749 42.5568 215.26 42.3636 214.639 42.3636C214.211 42.3636 213.829 42.4564 213.491 42.642C213.158 42.8277 212.895 43.0985 212.702 43.4545C212.509 43.8106 212.412 44.2424 212.412 44.75ZM222.999 50.2045C222.446 50.2045 221.944 50.1004 221.493 49.892C221.042 49.6799 220.684 49.375 220.419 48.9773C220.154 48.5758 220.021 48.0909 220.021 47.5227C220.021 47.0227 220.12 46.6174 220.317 46.3068C220.514 45.9924 220.777 45.7462 221.107 45.5682C221.436 45.3902 221.8 45.2576 222.197 45.1705C222.599 45.0795 223.002 45.0076 223.408 44.9545C223.938 44.8864 224.368 44.8352 224.697 44.8011C225.031 44.7633 225.273 44.7008 225.425 44.6136C225.58 44.5265 225.658 44.375 225.658 44.1591V44.1136C225.658 43.553 225.504 43.1174 225.197 42.8068C224.894 42.4962 224.434 42.3409 223.817 42.3409C223.177 42.3409 222.675 42.4811 222.311 42.7614C221.947 43.0417 221.692 43.3409 221.544 43.6591L220.271 43.2045C220.499 42.6742 220.802 42.2614 221.18 41.9659C221.563 41.6667 221.98 41.4583 222.43 41.3409C222.885 41.2197 223.332 41.1591 223.771 41.1591C224.052 41.1591 224.374 41.1932 224.737 41.2614C225.105 41.3258 225.459 41.4602 225.8 41.6648C226.144 41.8693 226.43 42.178 226.658 42.5909C226.885 43.0038 226.999 43.5568 226.999 44.25V50H225.658V48.8182H225.589C225.499 49.0076 225.347 49.2102 225.135 49.4261C224.923 49.642 224.641 49.8258 224.288 49.9773C223.936 50.1288 223.506 50.2045 222.999 50.2045ZM223.203 49C223.733 49 224.18 48.8958 224.544 48.6875C224.911 48.4792 225.188 48.2102 225.374 47.8807C225.563 47.5511 225.658 47.2045 225.658 46.8409V45.6136C225.601 45.6818 225.476 45.7443 225.283 45.8011C225.093 45.8542 224.874 45.9015 224.624 45.9432C224.377 45.9811 224.137 46.0152 223.902 46.0455C223.671 46.072 223.483 46.0947 223.339 46.1136C222.991 46.1591 222.665 46.233 222.362 46.3352C222.063 46.4337 221.821 46.5833 221.635 46.7841C221.453 46.9811 221.362 47.25 221.362 47.5909C221.362 48.0568 221.535 48.4091 221.879 48.6477C222.228 48.8826 222.669 49 223.203 49ZM230.787 38.3636V50H229.446V38.3636H230.787Z" fill="#737373"/>
</svg>
